<?xml version="1.0" encoding="UTF-8"?>
<!DOCTYPE svg PUBLIC "-//W3C//DTD SVG 1.1//EN" "http://www.w3.org/Graphics/SVG/1.1/DTD/svg11.dtd">
<!-- Creator: CorelDRAW 2019 (64-Bit) -->
<svg xmlns="http://www.w3.org/2000/svg" xml:space="preserve" width="130.127mm" height="186.279mm" version="1.1" style="shape-rendering:geometricPrecision; text-rendering:geometricPrecision; image-rendering:optimizeQuality; fill-rule:evenodd; clip-rule:evenodd"
viewBox="0 0 13000.01 18609.79"
 xmlns:xlink="http://www.w3.org/1999/xlink">
 <defs>
  <style type="text/css">
   <![CDATA[
    .str0 {stroke:#FEFEFE;stroke-width:7.61;stroke-miterlimit:22.9256}
    .str2 {stroke:#3E4095;stroke-width:7.61;stroke-miterlimit:22.9256}
    .str1 {stroke:#3E4095;stroke-width:7.61;stroke-linecap:round;stroke-linejoin:round;stroke-miterlimit:22.9256}
    .fil0 {fill:#FEFEFE}
    .fil4 {fill:#3E4095}
    .fil6 {fill:#373435;fill-rule:nonzero}
    .fil5 {fill:#EC268F;fill-rule:nonzero}
    .fil8 {fill:#33AEAB;fill-rule:nonzero}
    .fil3 {fill:#FFF212;fill-opacity:0.901961}
    .fil2 {fill:#EC268F;fill-opacity:0.901961}
    .fil1 {fill:#33AEAB;fill-opacity:0.901961}
    .fil7 {fill:#EC268F;fill-rule:nonzero;fill-opacity:0.901961}
    .fil9 {fill:#33AEAB;fill-rule:nonzero;fill-opacity:0.901961}
   ]]>
  </style>
 </defs>
 <g id="Capa_x0020_1">
  <metadata id="CorelCorpID_0Corel-Layer"/>
  <polygon class="fil0 str0" points="6506.34,4.37 9503.42,1694.36 12500.49,3384.35 12500.49,6764.35 12500.49,10144.35 9503.42,11834.35 6506.34,13524.35 3509.25,11834.35 512.18,10144.35 512.18,6764.35 512.18,3384.35 3509.25,1694.36 "/>
  <polygon class="fil1" points="1025.96,3683.29 6491.33,6733.95 6491.33,12835.58 1025.96,9784.92 "/>
  <polygon class="fil2" points="11969.3,3690.45 6492.86,6747.29 6492.86,12861.32 11969.3,9804.47 "/>
  <polygon class="fil3" points="11790.37,3556.79 6456.3,603.77 1114.27,3591.1 6448.34,6544.12 "/>
  <polygon class="fil4 str1" points="6492.86,12883.1 1014.41,9812.59 1011.68,3659.72 6491.31,6733.94 6488.75,10093.94 6015.97,9825.56 6021.13,6997.22 1556.95,4487.8 1549.95,9511.59 6492.86,12349.28 "/>
  <polygon class="fil4 str1" points="7020.29,6959.47 11969.3,9804.49 11493.89,10069.84 7017.3,7547.36 "/>
  <polygon class="fil4 str1" points="7014.79,9813.73 6488.75,10093.94 6474.65,1639.56 6473.73,1086.13 11053.99,3654.15 10577.73,3921.86 7006.25,1920.12 7006.68,6469.39 11957.28,3657.57 11955.86,4180.47 7020.29,6959.47 "/>
  <polygon class="fil0 str1" points="6015.97,9825.57 6488.75,10093.94 6478.41,1086.27 11049.16,3656.73 7006.62,5930.25 7006.66,6460.5 11514.77,3905.75 11515.55,3906.18 11957.28,3657.57 6471.58,586.79 6032.34,835.72 "/>
  <polygon class="fil0 str1" points="1011.68,3659.72 1396.97,3442.54 6019,6048.06 6018.14,6472.85 "/>
  <polygon class="fil0 str2" points="2067,4774.5 2083.8,9338.25 6491.31,11818.93 6492.86,12349.28 1549.95,9511.59 1552.58,4486.67 "/>
  <polygon class="fil0 str1" points="7332.8,6783.51 11969.3,9394.58 11969.3,9804.49 7020.29,6959.47 "/>
  <path class="fil5" d="M4233.84 16092.19l-208.54 778.34c172.09,-380.06 301.35,-613.28 387.11,-700.8 51.69,-51.72 105.75,-77.54 162.14,-77.54 37.59,0 68.72,14.1 92.81,42.29 24.08,28.18 35.84,68.14 35.84,119.83 0,89.27 -21.74,164.49 -65.23,225.57 -27.59,38.77 -58.14,58.15 -91.04,58.15 -38.18,0 -66.37,-17.03 -84.58,-51.68 -18.23,-34.07 -31.15,-54.05 -38.77,-59.93 -7.05,-5.87 -15.29,-8.8 -22.92,-8.8 -9.41,0 -18.8,2.93 -29.38,8.8 -20.57,10 -47.57,37.01 -79.87,79.89 -32.92,42.9 -72.86,115.14 -120.43,216.19 -47.6,101.03 -85.2,186.22 -112.2,255.52 -27.03,69.31 -64.63,202.08 -112.79,398.28l-335.44 0 229.12 -918.76c15.87,-68.14 24.08,-113.38 24.08,-136.27 0,-24.1 -4.71,-42.9 -12.91,-56.98 -8.83,-13.53 -20.57,-24.09 -35.25,-30.56 -15.3,-7.04 -46.41,-10.57 -94.58,-10.57l11.75 -39.35 418.24 -91.63 82.84 0z"/>
  <path class="fil6" d="M11097.93 16146.15l-60.48 428.81 -51.71 0c-6.45,-111.61 -40.54,-198.54 -101.03,-262.57 -61.09,-63.45 -125.72,-95.17 -194.43,-95.17 -42.9,0 -77.55,12.33 -105.18,37 -27.59,24.69 -41.11,54.65 -41.11,89.87 0,29.96 5.86,58.14 17.63,83.43 12.33,25.84 38.76,60.52 80.45,104.54 145.71,156.86 233.81,264.95 265.54,324.27 31.73,59.35 47.57,122.2 47.57,190.32 0,73.44 -18.8,142.18 -55.81,207.38 -37.58,64.62 -92.82,116.9 -166.24,156.26 -73.46,39.95 -149.8,59.34 -229.1,59.34 -54.05,0 -119.84,-10.59 -197.98,-32.3 -51.69,-15.31 -90.45,-22.34 -116.9,-22.34 -22.92,0 -40.54,2.95 -53.47,9.98 -12.32,7.06 -27,21.75 -42.87,44.66l-51.69 0 68.71 -462.92 43.48 0c32.89,112.8 63.46,192.68 91.64,240.29 28.2,47.57 65.81,85.17 112.79,113.36 46.99,28.19 92.23,42.28 136.28,42.28 50.53,0 92.22,-15.83 125.14,-48.14 33.49,-32.3 49.92,-69.89 49.92,-113.39 0,-43.46 -10.56,-85.74 -32.3,-126.86 -21.74,-40.55 -71.68,-104.01 -149.79,-189.77 -109.27,-117.49 -180.36,-207.95 -213.25,-271.99 -24.09,-45.84 -36.41,-98.1 -36.41,-156.86 0,-99.83 36.41,-182.67 108.68,-249.67 72.24,-66.37 173.87,-99.83 304.27,-99.83 57.58,0 128.08,9.98 212.06,29.36 41.13,10.58 74.02,15.85 99.3,15.85 35.83,0 64.6,-15.27 86.33,-45.22l49.93 0zm-1493.12 246.09c0,-74.61 -11.77,-128.65 -34.66,-161.56 -17.05,-23.49 -39.36,-34.67 -66.98,-34.67 -28.76,0 -58.75,13.5 -89.87,41.12 -61.7,57.58 -128.63,173.89 -200.32,348.95 -71.66,174.46 -107.49,326.01 -107.49,452.92 0,49.33 8.23,85.18 24.09,106.32 15.85,21.15 34.06,31.71 53.45,31.71 42.31,0 84.59,-23.49 127.46,-70.48 60.51,-68.73 115.14,-152.74 163.34,-251.43 86.92,-173.27 130.99,-327.79 130.99,-462.88zm443.5 -263.18l-268.47 920.51 -28.76 113.36c-2.36,14.1 -3.54,23.51 -3.54,29.4 0,11.72 4.11,21.14 11.76,29.35 8.22,8.24 16.45,12.33 24.08,12.33 19.37,0 46.42,-14.69 81.07,-43.46 13.51,-12.35 46.98,-54.63 99.86,-127.49l48.17 24.68c-65.2,120.42 -135.72,207.96 -209.74,263.17 -74.59,55.21 -155.07,82.26 -241.41,82.26 -52.29,0 -92.82,-13.52 -120.44,-41.14 -27.59,-27.59 -41.12,-61.69 -41.12,-103.37 0,-36.44 14.72,-103.42 44.65,-200.92l32.89 -112.19c-106.91,183.85 -209.7,313.7 -308.37,390.62 -56.99,44.67 -118.68,67 -183.89,67 -85.18,0 -146.27,-34.68 -184.46,-104.59 -37.58,-69.9 -56.39,-148.61 -56.39,-236.14 0,-130.39 39.96,-280.21 119.25,-448.79 79.89,-168.61 183.87,-304.29 312.51,-406.52 106.93,-84.57 206.79,-127.46 299.6,-127.46 51.7,0 93.41,15.27 124.54,45.22 31.73,29.38 55.22,84.02 69.9,163.33l49.95 -170.36 328.36 -18.8zm-1412.61 948.82l41.71 37.58c-89.91,106.91 -178.02,185.63 -264.94,235.54 -115.14,67 -234.39,99.89 -358.36,99.89 -83.4,0 -157.42,-17.63 -220.86,-52.88 -64.01,-35.83 -111.02,-85.77 -142.14,-149.79 -31.16,-64.61 -46.41,-130.42 -46.41,-197.97 0,-151.55 41.12,-300.18 123.96,-446.45 82.81,-146.88 191.47,-262.59 326,-347.77 135.11,-85.76 267.29,-128.63 396.51,-128.63 104.57,0 183.29,23.49 236.17,69.3 52.86,45.84 79.31,102.81 79.31,172.13 0,61.67 -19.98,113.95 -59.92,157.42 -39.37,42.87 -84.02,64.62 -133.35,64.62 -42.3,0 -77.56,-14.1 -105.75,-41.7 -28.2,-27.61 -42.3,-59.92 -42.3,-98.08 0,-49.37 25.25,-92.82 75.79,-130.42 33.48,-25.27 49.91,-47.6 49.91,-67.55 0,-15.87 -6.45,-28.78 -20.55,-39.38 -18.2,-14.69 -42.3,-22.32 -72.25,-22.32 -76.97,0 -149.79,31.74 -218.53,94.58 -90.47,82.85 -159.78,187.42 -207.36,314.87 -47.59,127.47 -71.67,248.5 -71.67,363.05 0,91.05 24.68,163.3 73.42,216.74 48.76,54.07 106.93,81.09 174.47,81.09 58.75,0 122.2,-15.28 191.5,-45.83 68.71,-29.96 133.94,-76.39 195.64,-138.04zm-1007.02 -962.29l-283.72 984.54c-14.69,56.4 -22.33,93.41 -22.33,112.2 0,8.8 4.12,18.21 11.73,27.59 8.24,8.82 17.06,13.54 25.87,13.54 16.43,0 31.71,-7.06 46.98,-20.58 42.29,-34.64 92.24,-96.34 149.21,-186.21l48.16 27.61c-139.79,243.18 -288.45,364.8 -445.27,364.8 -59.93,0 -107.52,-16.46 -142.76,-50.52 -35.83,-34.1 -53.46,-76.38 -53.46,-128.08 0,-34.66 7.65,-78.15 24.1,-130.99l192.69 -662.63c18.21,-62.85 27.59,-110.43 27.59,-142.73 0,-20.57 -8.79,-38.78 -27.01,-55.23 -17.64,-15.85 -41.72,-24.09 -71.1,-24.09 -15.28,0 -31.71,0.59 -49.91,1.76l17.02 -55.21 469.95 -75.79 82.24 0zm-2240.42 294.37c0,-74.61 -11.76,-128.65 -34.66,-161.55 -17.06,-23.5 -39.36,-34.68 -66.98,-34.68 -28.77,0 -58.74,13.51 -89.87,41.13 -61.68,57.58 -128.63,173.89 -200.32,348.95 -71.66,174.45 -107.49,326 -107.49,452.91 0,49.34 8.23,85.18 24.07,106.32 15.87,21.15 34.08,31.71 53.47,31.71 42.3,0 84.58,-23.48 127.48,-70.48 60.5,-68.72 115.14,-152.73 163.3,-251.43 86.95,-173.27 131.01,-327.78 131.01,-462.88zm443.5 -263.18l-268.47 920.51 -28.78 113.36c-2.34,14.1 -3.52,23.51 -3.52,29.4 0,11.73 4.12,21.14 11.75,29.35 8.23,8.25 16.46,12.34 24.08,12.34 19.39,0 46.41,-14.69 81.08,-43.47 13.51,-12.35 46.99,-54.62 99.86,-127.49l48.17 24.69c-65.2,120.42 -135.72,207.95 -209.73,263.16 -74.61,55.22 -155.08,82.26 -241.42,82.26 -52.27,0 -92.82,-13.52 -120.44,-41.14 -27.59,-27.59 -41.12,-61.68 -41.12,-103.37 0,-36.44 14.7,-103.41 44.66,-200.91l32.9 -112.2c-106.91,183.86 -209.73,313.7 -308.39,390.63 -56.99,44.66 -118.67,66.99 -183.88,66.99 -85.18,0 -146.29,-34.67 -184.45,-104.58 -37.6,-69.9 -56.4,-148.62 -56.4,-236.14 0,-130.4 39.93,-280.21 119.25,-448.8 79.9,-168.61 183.85,-304.29 312.51,-406.51 106.92,-84.58 206.77,-127.46 299.58,-127.46 51.72,0 93.44,15.26 124.56,45.21 31.7,29.38 55.21,84.02 69.89,163.34l49.95 -170.37 328.36 -18.8zm463.45 765.91l-162.15 640.29c-75.76,303.12 -149.18,522.24 -220.85,657.36 -71.67,135.7 -156.27,236.14 -253.19,301.35 -96.91,65.2 -207.36,98.11 -331.31,98.11 -79.31,0 -136.87,-15.3 -173.88,-45.83 -36.41,-29.97 -54.62,-65.2 -54.62,-105.73 0,-37.6 14.67,-70.52 45.24,-98.11 30.52,-27.62 71.05,-41.12 121.58,-41.12 41.12,0 72.84,10.57 94.57,31.71 21.74,21.16 32.9,48.19 32.9,79.9 0,29.96 -7.03,52.28 -21.14,66.4 -13.52,14.08 -20.55,24.05 -20.55,28.16l7.03 8.82c5.87,4.72 12.35,7.05 20.56,7.05 27.62,0 51.1,-8.79 70.49,-25.83 48.17,-43.48 84.6,-96.36 108.68,-158.62 17.04,-42.31 49.34,-153.92 96.36,-335.42l281.97 -1108.49 -192.69 0 46.39 -161.54c68.74,1.17 119.26,-7.65 151,-25.86 31.12,-18.2 64.61,-59.92 98.65,-123.93 102.23,-187.99 209.73,-323.11 321.92,-404.17 112.21,-81.65 237.93,-122.2 377.14,-122.2 88.11,0 152.14,17.07 192.68,51.12 39.94,34.67 59.92,79.31 59.92,134.53 0,46.98 -12.92,84.58 -39.37,112.8 -26.4,28.18 -59.92,42.28 -99.86,42.28 -37,0 -66.96,-11.76 -91.04,-34.68 -24.07,-22.91 -36.42,-50.5 -36.42,-82.81 0,-22.91 7.65,-47.01 23.49,-72.86 15.29,-25.82 22.92,-43.46 22.92,-52.28 0,-10.56 -3.52,-18.8 -9.98,-25.23 -7.04,-6.48 -16.45,-9.42 -27.59,-9.42 -55.23,0 -111.61,33.49 -168.61,99.86 -93.98,108.67 -169.75,279.62 -227.33,512.84l201.48 0 -48.19 161.54 -196.19 0zm-2163.02 -1549.22c-9.76,62.26 -14.65,113.52 -14.65,153.81 0,72.63 21.36,130.61 62.86,173.34 41.51,43.33 97.64,64.69 167.85,64.69 68.36,0 136.11,-16.47 203.23,-49.43 67.14,-32.35 145.88,-89.72 234.99,-170.89l42.72 39.67c-110.47,133.67 -217.89,228.26 -322.25,285.03 -104.37,56.76 -219.73,84.83 -346.06,84.83 -161.14,0 -272.22,-38.45 -333.86,-115.35 -61.04,-76.91 -92.17,-166.01 -92.17,-267.33 0,-156.86 46.39,-314.32 137.94,-471.8 91.56,-157.46 216.68,-283.19 374.76,-378.41 158.09,-94.6 316.16,-142.2 474.85,-142.2 80.57,0 142.21,19.53 183.1,57.37 40.89,38.45 61.64,86.67 61.64,144.64 0,70.81 -20.14,139.16 -61.03,205.69 -54.32,89.72 -124.51,162.35 -208.74,217.28 -84.84,55.55 -179.44,97.66 -284.41,126.34 -68.96,18.93 -162.96,33.58 -280.76,42.73zm12.2 -75.07c84.85,-11.6 150.15,-28.69 197.15,-50.05 46.38,-21.37 92.15,-56.15 136.72,-103.76 44.56,-47.6 83.01,-108.03 115.35,-180.66 31.74,-72.63 48.21,-140.37 48.21,-203.85 0,-26.24 -7.31,-46.99 -22.58,-62.26 -14.65,-15.86 -33.58,-23.19 -56.16,-23.19 -46.37,0 -98.25,31.74 -155.63,96.44 -104.99,116.57 -192.25,292.36 -263.06,527.34zm2064.51 -698.84l-278.92 956.41 -29.9 117.79c-2.45,14.65 -3.68,24.43 -3.68,30.51 0,12.22 4.28,21.98 12.22,30.53 8.53,8.54 17.08,12.82 25.03,12.82 20.14,0 48.21,-15.26 84.22,-45.17 14.04,-12.82 48.84,-56.75 103.77,-132.45l50.04 25.64c-67.74,125.13 -140.98,216.07 -217.89,273.43 -77.52,57.38 -161.14,85.45 -250.85,85.45 -54.33,0 -96.45,-14.04 -125.14,-42.72 -28.67,-28.68 -42.72,-64.09 -42.72,-107.42 0,-37.84 15.26,-107.43 46.39,-208.75l34.18 -116.57c-111.08,191.02 -217.89,325.92 -320.44,405.86 -59.2,46.39 -123.28,69.58 -191.03,69.58 -88.49,0 -151.97,-36 -191.64,-108.63 -39.06,-72.63 -58.59,-154.42 -58.59,-245.35 0,-135.5 41.51,-291.14 123.9,-466.32 83.01,-175.16 191.04,-316.14 324.7,-422.35 111.08,-87.88 214.84,-132.44 311.27,-132.44 53.72,0 97.05,15.86 129.4,46.99 32.95,30.51 57.36,87.29 72.63,169.67l51.88 -177 341.17 -19.53zm-460.79 273.43c0,-77.51 -12.22,-133.67 -36.01,-167.85 -17.7,-24.42 -40.89,-36 -69.58,-36 -29.9,0 -61.03,14.04 -93.38,42.72 -64.1,59.81 -133.66,180.66 -208.13,362.55 -74.46,181.26 -111.7,338.74 -111.7,470.57 0,51.27 8.55,88.49 25.03,110.47 16.48,21.98 35.41,32.95 55.55,32.95 43.94,0 87.89,-24.41 132.44,-73.24 62.86,-71.41 119.62,-158.69 169.66,-261.22 90.33,-180.05 136.13,-340.58 136.13,-480.95zm1444.99 693.95l43.34 39.06c-93.38,111.08 -184.93,192.86 -275.26,244.74 -119.62,69.58 -243.52,103.76 -372.31,103.76 -86.67,0 -163.57,-18.3 -229.49,-54.93 -66.54,-37.23 -115.35,-89.11 -147.71,-155.64 -32.35,-67.14 -48.21,-135.5 -48.21,-205.68 0,-157.48 42.72,-311.89 128.78,-463.86 86.06,-152.58 198.97,-272.83 338.74,-361.33 140.37,-89.1 277.69,-133.66 411.98,-133.66 108.63,0 190.42,24.42 245.35,72.02 54.94,47.6 82.4,106.81 82.4,178.83 0,64.08 -20.75,118.4 -62.26,163.57 -40.89,44.56 -87.28,67.13 -138.55,67.13 -43.94,0 -80.57,-14.64 -109.86,-43.33 -29.3,-28.69 -43.95,-62.26 -43.95,-101.92 0,-51.28 26.25,-96.45 78.74,-135.5 34.79,-26.25 51.88,-49.44 51.88,-70.19 0,-16.47 -6.71,-29.9 -21.37,-40.89 -18.92,-15.27 -43.94,-23.19 -75.08,-23.19 -79.94,0 -155.64,32.95 -227.04,98.25 -94,86.06 -166.02,194.7 -215.46,327.15 -49.42,132.43 -74.45,258.17 -74.45,377.17 0,94.61 25.63,169.67 76.29,225.22 50.66,56.16 111.08,84.23 181.26,84.23 61.04,0 126.97,-15.86 198.98,-47.6 71.41,-31.13 139.16,-79.34 203.24,-143.43zm769.98 -987.53l-294.78 1022.92c-15.27,58.59 -23.21,97.05 -23.21,116.58 0,9.16 4.28,18.92 12.22,28.69 8.53,9.16 17.7,14.04 26.85,14.04 17.08,0 32.95,-7.32 48.82,-21.37 43.95,-36.01 95.83,-100.09 155.03,-193.47l50.05 28.69c-145.26,252.67 -299.69,379.01 -462.65,379.01 -62.25,0 -111.68,-17.08 -148.31,-52.48 -37.23,-35.41 -55.55,-79.34 -55.55,-133.06 0,-36.01 7.94,-81.18 25.03,-136.11l200.2 -688.46c18.92,-65.31 28.68,-114.75 28.68,-148.32 0,-21.37 -9.16,-40.28 -28.07,-57.36 -18.31,-16.49 -43.34,-25.03 -73.86,-25.03 -15.86,0 -32.95,0.61 -51.88,1.82l17.7 -57.36 488.27 -78.73 85.45 0zm1037.57 0c75.09,0 145.88,17.69 213.02,53.1 66.53,34.79 116.57,83.62 150.74,145.87 34.18,61.64 51.28,130.61 51.28,206.92 0,155.01 -43.34,310.66 -130,466.3 -86.07,155.64 -200.8,278.31 -343.02,368.02 -142.81,90.33 -285.63,134.89 -428.46,134.89 -131.22,0 -232.53,-39.05 -303.94,-117.19 -71.42,-77.5 -107.42,-172.72 -107.42,-285.03 0,-133.66 26.84,-258.78 80.56,-375.35 53.71,-116.57 121.46,-218.5 203.24,-305.17 81.18,-86.06 175.78,-156.25 281.99,-210.56 106.81,-54.32 217.28,-81.78 332.01,-81.78zm-59.19 75.07c-51.26,0 -93.38,15.26 -126.96,45.17 -66.52,60.42 -142.21,202.03 -227.04,424.8 -84.85,222.16 -126.95,422.36 -126.95,601.19 0,44.56 13.43,80.56 40.28,109.24 26.84,28.69 58.58,42.73 95.82,42.73 36.62,0 69.58,-10.99 98.26,-33.58 42.72,-34.79 95.21,-112.29 156.25,-232.54 61.65,-120.23 111.7,-253.29 151.36,-398.55 39.07,-145.86 59.2,-278.92 59.2,-400.99 0,-50.04 -12.81,-88.49 -37.22,-115.96 -24.42,-27.46 -51.88,-41.51 -83.01,-41.51zm1166.69 -75.07l-177 617.05c119.01,-180.05 208.74,-303.33 267.94,-369.87 87.29,-95.82 162.96,-160.52 226.43,-195.3 64.09,-34.19 123.3,-51.88 178.23,-51.88 50.04,0 92.77,18.92 128.78,55.55 35.41,37.22 53.09,85.44 53.09,145.26 0,53.09 -11.6,118.39 -35.39,194.69l-184.33 615.23c-15.27,53.71 -23.2,88.49 -23.2,105.59 0,9.16 3.68,17.69 11.6,25.64 7.94,7.94 15.27,11.59 22.58,11.59 9.16,0 19.54,-4.28 29.91,-12.2 33.57,-27.46 67.74,-67.14 101.92,-118.41 8.55,-12.81 22.59,-32.95 41.52,-60.41l55.53 33.57c-140.98,237.41 -289.3,355.82 -445.55,355.82 -59.2,0 -106.2,-15.27 -139.15,-46.39 -33.57,-31.11 -50.04,-69.56 -50.04,-115.96 0,-39.66 10.97,-98.88 33.56,-178.83l180.66 -615.23c12.21,-40.89 17.7,-70.18 17.7,-89.72 0,-10.37 -3.66,-19.52 -12.21,-27.46 -8.54,-7.92 -18.3,-11.59 -30.52,-11.59 -35.4,0 -79.95,25.02 -132.44,75.07 -131.84,126.34 -260,314.93 -384.51,565.18l-117.8 427.23 -366.21 0 267.94 -924.67c26.24,-90.33 39.05,-155.02 39.05,-192.86 0,-16.47 -3.65,-30.52 -11.59,-42.12 -7.32,-10.99 -20.14,-20.14 -37.22,-25.63 -17.1,-6.11 -50.05,-9.16 -97.65,-9.16l16.47 -55.55 484.61 -84.22 87.29 0zm1131.3 794.05c-9.77,62.26 -14.65,113.52 -14.65,153.81 0,72.63 21.36,130.61 62.85,173.34 41.52,43.33 97.65,64.69 167.86,64.69 68.35,0 136.11,-16.47 203.23,-49.43 67.14,-32.35 145.88,-89.72 234.98,-170.89l42.73 39.67c-110.47,133.67 -217.89,228.26 -322.26,285.03 -104.36,56.76 -219.72,84.83 -346.06,84.83 -161.13,0 -272.21,-38.45 -333.85,-115.35 -61.04,-76.91 -92.17,-166.01 -92.17,-267.33 0,-156.86 46.39,-314.32 137.94,-471.8 91.56,-157.46 216.68,-283.19 374.76,-378.41 158.09,-94.6 316.16,-142.2 474.85,-142.2 80.57,0 142.21,19.53 183.1,57.37 40.89,38.45 61.64,86.67 61.64,144.64 0,70.81 -20.14,139.16 -61.03,205.69 -54.32,89.72 -124.51,162.35 -208.74,217.28 -84.84,55.55 -179.44,97.66 -284.42,126.34 -68.95,18.93 -162.96,33.58 -280.75,42.73zm12.2 -75.07c84.85,-11.6 150.15,-28.69 197.15,-50.05 46.38,-21.37 92.15,-56.15 136.72,-103.76 44.56,-47.6 83.01,-108.03 115.35,-180.66 31.74,-72.63 48.21,-140.37 48.21,-203.85 0,-26.24 -7.32,-46.99 -22.58,-62.26 -14.65,-15.86 -33.58,-23.19 -56.16,-23.19 -46.38,0 -98.26,31.74 -155.63,96.44 -104.99,116.57 -192.25,292.36 -263.06,527.34zm1748.37 -718.98l-62.87 445.55 -53.72 0c-6.71,-115.97 -42.12,-206.3 -104.97,-272.81 -63.48,-65.93 -130.62,-98.88 -202.03,-98.88 -44.55,0 -80.56,12.81 -109.25,38.45 -28.68,25.64 -42.72,56.76 -42.72,93.38 0,31.13 6.1,60.43 18.3,86.67 12.83,26.85 40.29,62.87 83.62,108.64 151.36,162.95 242.92,275.26 275.88,336.9 32.96,61.66 49.43,126.96 49.43,197.76 0,76.3 -19.53,147.71 -57.98,215.45 -39.06,67.14 -96.43,121.46 -172.72,162.35 -76.3,41.5 -155.64,61.64 -238.03,61.64 -56.16,0 -124.51,-10.99 -205.69,-33.57 -53.71,-15.86 -94,-23.19 -121.46,-23.19 -23.8,0 -42.1,3.05 -55.54,10.38 -12.82,7.32 -28.08,22.58 -44.56,46.37l-53.71 0 71.41 -480.95 45.17 0c34.18,117.19 65.92,200.2 95.22,249.64 29.29,49.44 68.35,88.5 117.19,117.8 48.81,29.3 95.82,43.94 141.59,43.94 52.48,0 95.83,-16.47 130,-50.04 34.79,-33.58 51.88,-72.63 51.88,-117.8 0,-45.17 -10.99,-89.1 -33.57,-131.83 -22.59,-42.12 -74.47,-108.03 -155.64,-197.14 -113.52,-122.07 -187.38,-216.07 -221.55,-282.58 -25.03,-47.61 -37.84,-101.93 -37.84,-162.96 0,-103.76 37.84,-189.82 112.91,-259.4 75.07,-68.96 180.66,-103.76 316.16,-103.76 59.8,0 133.05,10.38 220.33,30.52 42.73,10.97 76.91,16.47 103.15,16.47 37.22,0 67.14,-15.86 89.73,-46.99l51.88 0z"/>
  <path class="fil7" d="M3589.18 16000.6l-163.52 757.24 -67.01 0c-8.86,-220.25 -58.21,-378.64 -148.08,-475.84 -89.84,-97.23 -215.81,-145.85 -378.59,-145.85 -165.74,0 -331.46,58.91 -498.67,176.77 -166.47,117.85 -309.36,299.81 -427.21,544.33 -117.86,244.56 -176.79,501.62 -176.79,771.96 0,232.01 52.29,408.8 156.16,531.07 104.6,122.26 227.6,183.41 368.28,183.41 58.95,0 130.4,-16.93 213.61,-51.56l181.22 -621.68c30.17,-103.84 45.66,-171.64 45.66,-204.76 0,-43.47 -18.4,-79.56 -55.25,-109.03 -36.81,-29.44 -99.44,-44.19 -188.57,-44.19l16.93 -64.81 1016.51 0 -15.48 64.81c-60.39,4.43 -107.54,15.48 -141.43,34.63 -33.12,18.4 -60.37,46.39 -80.26,83.96 -11.8,21.35 -29.47,78.09 -54.53,170.16l-213.6 725.54c-243.07,92.07 -498.66,137.74 -768.25,137.74 -206.99,0 -383.03,-37.57 -528.15,-113.42 -145.81,-75.16 -265.89,-194.47 -361.64,-357.99 -95.77,-163.54 -143.65,-349.17 -143.65,-557.61 0,-444.89 198.13,-810.98 593.69,-1098.26 309.37,-224.63 659.99,-336.62 1052.57,-336.62 67.78,0 130.39,2.96 187.83,10.34 43.48,5.9 118.58,22.09 226.89,50.08 69.23,16.93 116.38,25.77 142.15,25.77 50.82,0 98.7,-28.73 144.37,-86.2l64.82 0z"/>
  <path class="fil8" d="M3477.12 14569.41l-216.66 808.7c178.83,-394.9 313.1,-637.2 402.2,-728.14 53.72,-53.71 109.87,-80.56 168.47,-80.56 39.05,0 71.4,14.66 96.44,43.95 25.03,29.3 37.22,70.79 37.22,124.51 0,92.77 -22.58,170.88 -67.74,234.36 -28.69,40.29 -60.43,60.43 -94.61,60.43 -39.66,0 -68.96,-17.7 -87.89,-53.72 -18.91,-35.39 -32.34,-56.16 -40.27,-62.25 -7.33,-6.1 -15.86,-9.15 -23.81,-9.15 -9.76,0 -19.54,3.05 -30.51,9.15 -21.37,10.37 -49.44,38.45 -83.01,83 -34.18,44.56 -75.7,119.63 -125.12,224.62 -49.44,104.97 -88.51,193.46 -116.59,265.49 -28.06,72.02 -67.13,209.96 -117.19,413.81l-348.5 0 238.03 -954.57c16.49,-70.79 25.03,-117.8 25.03,-141.6 0,-25.03 -4.89,-44.55 -13.43,-59.2 -9.16,-14.04 -21.36,-25.03 -36.62,-31.74 -15.86,-7.32 -48.21,-10.99 -98.25,-10.99l12.2 -40.89 434.57 -95.21 86.06 0z"/>
  <path class="fil9" d="M2831.89 14571.85l-209.44 909.35 -84.12 0c-8.07,-246.13 -68.92,-430.52 -180.81,-553.12 -111.88,-122.62 -257.78,-183.49 -437.67,-183.49 -194.21,0 -387.55,83.23 -580.87,248.82 -193.32,166.47 -357.12,420.67 -491.37,763.46 -108.3,277.47 -162.89,551.36 -162.89,820.76 0,242.55 59.96,427.83 179.89,554.03 119.93,127.09 282.82,190.63 488.68,190.63 168.28,0 320.43,-36.7 457.36,-109.2 137.85,-72.48 276.58,-191.52 418.87,-358.01l102.04 0c-174.52,262.26 -351.75,446.63 -529.87,552.24 -178.1,105.62 -395.59,158.43 -652.46,158.43 -344.58,0 -622.05,-103.84 -833.27,-313.26 -210.35,-208.55 -315.96,-481.53 -315.96,-818.96 0,-315.05 84.15,-614.88 250.62,-901.28 167.37,-285.52 408.13,-517.34 722.3,-694.56 315.05,-177.21 628.31,-265.82 938.9,-265.82 119.04,0 265.82,25.07 440.34,75.19 91.3,26.85 153.96,39.38 188.86,39.38 69.81,0 141.42,-38.49 213.03,-114.57l77.85 0z"/>
  <path class="fil8" d="M2851.12 13711.93c-37.24,-31.77 -76.77,-55.6 -118.17,-71.48 -41.6,-15.88 -85.29,-23.83 -131.04,-23.83 -88.49,0 -160.54,28.36 -216.14,85.29 -55.59,56.91 -83.39,130.47 -83.39,221.04 0,87.36 27.04,159.59 81.12,216.51 54.09,56.91 122.35,85.29 204.6,85.29 48.03,0 93.6,-8.51 137.1,-25.54 43.3,-17.01 84.9,-42.54 124.8,-76.96l0 149c-35.37,25.53 -73.94,44.63 -115.73,57.1 -41.79,12.67 -86.99,18.91 -135.58,18.91 -62.02,0 -119.31,-10.21 -171.88,-30.45 -52.76,-20.42 -98.89,-50.29 -138.79,-89.81 -39.52,-38.76 -69.77,-84.53 -91.14,-137.1 -21.18,-52.57 -31.77,-108.72 -31.77,-168.1 0,-59.57 10.59,-115.35 31.77,-167.54 21.37,-52.38 52,-98.14 92.27,-137.67 40.28,-39.89 86.42,-70.15 138.42,-90.57 52.01,-20.61 108.35,-30.82 168.87,-30.82 47.65,0 93.03,6.99 136.15,20.8 43.3,13.99 85.09,34.98 125.75,63.16l-7.19 132.74z"/>
  <path id="1" class="fil6" d="M3081.42 13860.55l24.02 0c69.77,0 116.1,-8.13 138.98,-24.4 22.88,-16.26 34.42,-45.01 34.42,-86.42 0,-44.63 -12.3,-76.02 -36.87,-94.36 -24.59,-18.34 -70.16,-27.41 -136.53,-27.41l-24.02 0 0 232.58zm-7.94 102.11l0 363.06 -123.67 0 0 -811.21 183.8 0c53.89,0 95.69,3.6 125.56,10.59 29.69,7 55.03,18.53 76.02,34.8 25.15,19.66 44.44,45.01 58.24,76.02 13.62,31.01 20.42,64.86 20.42,101.92 0,64.86 -15.69,115.73 -47.08,152.6 -31.39,36.67 -77.71,58.8 -138.98,66.18l279.1 369.11 -148.63 0 -270.03 -363.06 -14.75 0z"/>
  <polygon id="2" class="fil6" points="3522.56,14325.72 3522.56,13514.51 3654.16,13514.51 3654.16,14325.72 "/>
  <path id="3" class="fil6" d="M3732.43 14163.29l105.14 -48.59c10.02,36.11 28.36,63.72 55.03,82.63 26.47,19.1 60.51,28.55 101.92,28.55 39.33,0 70.34,-10.97 93.6,-32.71 23.07,-21.75 34.61,-50.87 34.61,-87.36 0,-47.65 -39.52,-90.19 -118.75,-127.45 -11.15,-5.48 -19.66,-9.64 -25.53,-12.1 -89.44,-43.69 -149,-83.02 -178.7,-118.37 -29.68,-35.37 -44.62,-78.47 -44.62,-129.34 0,-66.18 22.5,-119.69 67.31,-160.72 44.82,-41.04 103.81,-61.46 176.61,-61.46 59.75,0 109.86,11.54 150.14,34.61 40.27,23.07 68.07,56.17 83.58,99.27l-102.87 53.33c-16.26,-25.54 -34.04,-44.25 -53.51,-55.98 -19.48,-11.91 -41.79,-17.77 -66.94,-17.77 -35.36,0 -63.72,9.26 -84.52,27.79 -20.99,18.34 -31.39,43.12 -31.39,74.13 0,48.78 45.95,94.36 137.66,136.34 6.99,3.4 12.48,6.04 16.64,7.75 80.17,37.06 135.2,73.18 165.07,108.34 29.88,35.37 44.82,79.42 44.82,132.18 0,76.77 -24.2,137.85 -72.61,183.04 -48.4,45.19 -113.83,67.88 -196.28,67.88 -69.01,0 -125.56,-15.88 -169.8,-47.65 -44.06,-31.77 -72.99,-77.15 -86.61,-136.34z"/>
  <polygon id="4" class="fil6" points="4598.83,13626.83 4598.83,14325.72 4467.23,14325.72 4467.23,13626.83 4251.66,13626.83 4251.66,13514.51 4813.26,13514.51 4813.26,13626.83 "/>
  <polygon id="5" class="fil6" points="4851.45,14325.72 4851.45,13514.51 4983.05,13514.51 4983.05,14325.72 "/>
  <path id="6" class="fil6" d="M5279.15 14006.91l226.15 0 -83.2 -184.93c-4.73,-11.73 -9.83,-25.35 -14.94,-40.66 -5.11,-15.32 -10.4,-32.33 -15.5,-51.24 -4.35,17.77 -9.08,34.23 -14.19,49.54 -4.92,15.32 -10.02,29.5 -15.13,42.36l-83.2 184.93zm364.57 318.81l-91.89 -208.76 -321.46 0 -94.17 208.76 -138.42 0 392.74 -842.98 392.37 842.98 -139.17 0z"/>
  <path id="7" class="fil6" d="M5794.22 14325.72l0 -842.98 515.47 495.62c14,14 28.17,28.93 42.74,44.82 14.37,15.88 29.5,33.85 45.39,53.7l0 -562.36 121.39 0 0 842.98 -525.49 -504.88c-14,-13.81 -27.6,-28.17 -40.65,-43.3 -13.24,-15.14 -25.54,-31.02 -37.44,-47.65l0 564.06 -121.4 0z"/>
  <path id="8" class="fil6" d="M7418.49 14006.91l226.15 0 -83.2 -184.93c-4.73,-11.73 -9.83,-25.35 -14.94,-40.66 -5.11,-15.32 -10.4,-32.33 -15.5,-51.24 -4.35,17.77 -9.08,34.23 -14.19,49.54 -4.92,15.32 -10.02,29.5 -15.13,42.36l-83.2 184.93zm364.57 318.81l-91.89 -208.76 -321.46 0 -94.17 208.76 -138.42 0 392.74 -842.98 392.37 842.98 -139.17 0z"/>
  <path id="9" class="fil6" d="M8564.56 13711.93c-37.24,-31.77 -76.77,-55.6 -118.17,-71.48 -41.6,-15.88 -85.29,-23.83 -131.04,-23.83 -88.49,0 -160.54,28.36 -216.14,85.29 -55.59,56.91 -83.39,130.47 -83.39,221.04 0,87.36 27.04,159.59 81.12,216.51 54.09,56.91 122.35,85.29 204.6,85.29 48.03,0 93.6,-8.51 137.1,-25.54 43.3,-17.01 84.9,-42.54 124.8,-76.96l0 149c-35.37,25.53 -73.94,44.63 -115.73,57.1 -41.79,12.67 -86.99,18.91 -135.58,18.91 -62.02,0 -119.31,-10.21 -171.88,-30.45 -52.76,-20.42 -98.89,-50.29 -138.79,-89.81 -39.52,-38.76 -69.77,-84.53 -91.14,-137.1 -21.18,-52.57 -31.77,-108.72 -31.77,-168.1 0,-59.57 10.59,-115.35 31.77,-167.54 21.37,-52.38 52,-98.14 92.27,-137.67 40.28,-39.89 86.42,-70.15 138.42,-90.57 52.01,-20.61 108.35,-30.82 168.87,-30.82 47.65,0 93.03,6.99 136.15,20.8 43.3,13.99 85.09,34.98 125.75,63.16l-7.19 132.74z"/>
  <polygon id="10" class="fil6" points="8663.24,14325.72 8663.24,13514.51 9115.93,13514.51 9115.93,13626.83 8794.86,13626.83 8794.86,13829.92 9115.93,13829.92 9115.93,13945.64 8794.86,13945.64 8794.86,14207.73 9115.93,14207.73 9115.93,14325.72 "/>
  <path id="11" class="fil6" d="M9333.75 14206.6l111 0c60.88,0 106.65,-3.98 137.09,-12.11 30.63,-8.13 57.1,-21.93 79.61,-41.03 30.63,-26.28 53.7,-58.81 69.01,-97.95 15.32,-38.95 23.07,-84.33 23.07,-135.96 0,-51.81 -7.75,-97.01 -23.07,-135.96 -15.32,-39.14 -38.38,-71.66 -69.01,-97.94 -22.89,-19.1 -50.3,-32.91 -82.26,-41.03 -31.96,-8.13 -82.06,-12.11 -150.13,-12.11l-47.65 0 -47.65 0 0 574.09zm-131.61 119.12l0 -811.21 177.56 0c115.73,0 197.04,5.86 244.31,17.4 47.08,11.72 88.3,31.2 123.86,58.42 46.89,35.94 82.44,81.88 106.65,138.05 24.21,56.16 36.3,120.25 36.3,192.3 0,72.04 -12.1,135.77 -36.3,191.36 -24.21,55.59 -59.75,101.54 -106.65,137.85 -35.56,27.23 -75.83,46.7 -121.21,58.43 -45.2,11.53 -115.73,17.39 -211.4,17.39l-35.56 0 -177.56 0z"/>
  <path id="12" class="fil6" d="M10671.38 13921.82c0,-41.04 -7.56,-79.99 -22.51,-116.87 -14.94,-36.87 -36.49,-69.77 -64.48,-98.51 -27.41,-28.55 -58.99,-50.3 -94.93,-65.62 -36.11,-15.32 -74.12,-23.07 -113.83,-23.07 -39.9,0 -77.9,7.56 -114.02,22.69 -35.94,15.13 -68.07,37.06 -96.07,66 -27.98,28.36 -49.54,61.08 -64.29,97.94 -14.75,36.87 -22.13,76.02 -22.13,117.44 0,41.03 7.38,79.79 22.13,116.29 14.75,36.49 36.3,69.21 64.29,97.95 27.99,28.92 59.94,50.86 95.88,65.99 35.74,15.14 73.93,22.7 114.21,22.7 39.52,0 76.96,-7.56 112.7,-22.7 35.55,-15.13 67.69,-37.06 96.06,-65.99 27.98,-28.74 49.54,-61.46 64.48,-98.14 14.95,-36.87 22.51,-75.45 22.51,-116.1zm137.28 0c0,57.66 -10.78,112.13 -32.33,163.37 -21.75,51.43 -53.14,97.2 -94.55,137.47 -41.6,40.28 -88.68,71.1 -141.25,92.47 -52.38,21.37 -107.41,32.15 -164.89,32.15 -58.43,0 -114.02,-10.78 -167.16,-32.34 -52.95,-21.75 -99.65,-52.38 -140.3,-92.28 -41.42,-40.27 -72.81,-85.85 -94.17,-136.9 -21.37,-50.87 -32.15,-105.52 -32.15,-163.94 0,-58.05 10.78,-112.7 32.15,-163.95 21.36,-51.43 52.75,-97.39 94.17,-138.04 41.41,-40.28 88.3,-70.91 140.68,-91.9 52.38,-20.99 107.96,-31.58 166.78,-31.58 58.24,0 113.46,10.59 165.83,31.58 52.2,20.99 99.09,51.62 140.31,91.9 41.41,41.03 72.8,87.36 94.55,138.79 21.55,51.62 32.33,105.89 32.33,163.19z"/>
  <path id="13" class="fil5" d="M6808.3 13860.55l24.02 0c69.77,0 116.1,-8.13 138.98,-24.4 22.88,-16.26 34.42,-45.01 34.42,-86.42 0,-44.63 -12.3,-76.02 -36.87,-94.36 -24.59,-18.34 -70.16,-27.41 -136.53,-27.41l-24.02 0 0 232.58zm-7.94 102.11l0 363.06 -123.67 0 0 -811.21 183.8 0c53.89,0 95.69,3.6 125.56,10.59 29.69,7 55.03,18.53 76.02,34.8 25.15,19.66 44.44,45.01 58.24,76.02 13.62,31.01 20.42,64.86 20.42,101.92 0,64.86 -15.69,115.73 -47.08,152.6 -31.39,36.67 -77.71,58.8 -138.98,66.18l279.1 369.11 -148.63 0 -270.03 -363.06 -14.75 0z"/>
 </g>
</svg>
