<?xml version="1.0" encoding="UTF-8"?>
<!DOCTYPE svg PUBLIC "-//W3C//DTD SVG 1.1//EN" "http://www.w3.org/Graphics/SVG/1.1/DTD/svg11.dtd">
<!-- Creator: CorelDRAW 2019 (64-Bit) -->
<svg xmlns="http://www.w3.org/2000/svg" xml:space="preserve" width="13.2472mm" height="7.4446mm" version="1.1" style="shape-rendering:geometricPrecision; text-rendering:geometricPrecision; image-rendering:optimizeQuality; fill-rule:evenodd; clip-rule:evenodd"
viewBox="0 0 311.2 174.89"
 xmlns:xlink="http://www.w3.org/1999/xlink">
 <defs>
  <style type="text/css">
   <![CDATA[
    .str0 {stroke:#33AEAB;stroke-width:11.75;stroke-miterlimit:22.9256}
    .str2 {stroke:#33AEAB;stroke-width:1.79;stroke-miterlimit:22.9256}
    .str1 {stroke:#33AEAB;stroke-width:11.75;stroke-linecap:round;stroke-linejoin:round;stroke-miterlimit:22.9256}
    .fil0 {fill:none}
    .fil2 {fill:none;fill-rule:nonzero}
    .fil1 {fill:#33AEAB;fill-rule:nonzero}
   ]]>
  </style>
 </defs>
 <g id="Capa_x0020_1">
  <metadata id="CorelCorpID_0Corel-Layer"/>
  <line class="fil0 str0" x1="173.69" y1="11.3" x2="309.69" y2= "11.3" />
  <line class="fil0 str0" x1="173.42" y1="105.17" x2="309.95" y2= "105.17" />
  <line class="fil0 str0" x1="172.17" y1="152.11" x2="311.2" y2= "152.11" />
  <ellipse class="fil0 str1" cx="81.56" cy="53.54" rx="46.44" ry="47.67"/>
  <path class="fil0 str1" d="M5.87 169.02c0.22,-32.36 34.77,-67.57 75.22,-67.57 40.45,0 75.23,33.68 75.23,66.99"/>
  <path class="fil1" d="M81.55 27.42c1.05,0 1.95,0.39 2.69,1.16 0.75,0.77 1.12,1.71 1.12,2.79 0,1.07 -0.37,2 -1.12,2.77 -0.74,0.78 -1.64,1.16 -2.69,1.16 -1.04,0 -1.93,-0.38 -2.67,-1.16 -0.75,-0.77 -1.12,-1.7 -1.12,-2.77 0,-1.08 0.37,-2.02 1.12,-2.79 0.75,-0.78 1.63,-1.16 2.67,-1.16zm-2.3 15.21l4.62 0 0 37.04 -4.62 0 0 -37.04z"/>
  <path id="1" class="fil2 str2" d="M81.55 27.42c1.05,0 1.95,0.39 2.69,1.16 0.75,0.77 1.12,1.71 1.12,2.79 0,1.07 -0.37,2 -1.12,2.77 -0.74,0.78 -1.64,1.16 -2.69,1.16 -1.04,0 -1.93,-0.38 -2.67,-1.16 -0.75,-0.77 -1.12,-1.7 -1.12,-2.77 0,-1.08 0.37,-2.02 1.12,-2.79 0.75,-0.78 1.63,-1.16 2.67,-1.16zm-2.3 15.21l4.62 0 0 37.04 -4.62 0 0 -37.04z"/>
  <line class="fil0 str0" x1="173.42" y1="58.24" x2="309.95" y2= "58.24" />
 </g>
</svg>
