<?xml version="1.0" encoding="UTF-8"?>
<!DOCTYPE svg PUBLIC "-//W3C//DTD SVG 1.1//EN" "http://www.w3.org/Graphics/SVG/1.1/DTD/svg11.dtd">
<!-- Creator: CorelDRAW 2019 (64-Bit) -->
<svg xmlns="http://www.w3.org/2000/svg" xml:space="preserve" width="3.9989mm" height="4.5758mm" version="1.1" style="shape-rendering:geometricPrecision; text-rendering:geometricPrecision; image-rendering:optimizeQuality; fill-rule:evenodd; clip-rule:evenodd"
viewBox="0 0 14.04 16.06"
 xmlns:xlink="http://www.w3.org/1999/xlink">
 <defs>
  <style type="text/css">
   <![CDATA[
    .str0 {stroke:#33AEAB;stroke-width:1.76;stroke-miterlimit:22.9256}
    .fil0 {fill:#FEFEFE}
    .fil1 {fill:#33AEAB}
   ]]>
  </style>
 </defs>
 <g id="Capa_x0020_1">
  <metadata id="CorelCorpID_0Corel-Layer"/>
  <g id="_1840322878768">
   <polygon class="fil0 str0" points="7.02,1.01 10.09,2.77 13.16,4.52 13.16,8.03 13.16,11.54 10.09,13.3 7.02,15.05 3.95,13.3 0.88,11.54 0.88,8.03 0.88,4.52 3.95,2.77 "/>
   <path class="fil1" d="M11.5 2.12l-4.99 5.18 0 0.66 0.76 0.01 4.77 -4.81c0.42,0.54 0.56,1.57 0.56,2.55l-4.27 4.27 -4.06 0.98 0.67 -3.4 5.88 -6.15c0.11,0.04 0.01,-0.04 0.18,0.1 0.05,0.04 0.12,0.12 0.16,0.16 0.17,0.2 0.14,0.22 0.35,0.43z"/>
  </g>
 </g>
</svg>
