<?xml version="1.0" encoding="UTF-8"?>
<!DOCTYPE svg PUBLIC "-//W3C//DTD SVG 1.1//EN" "http://www.w3.org/Graphics/SVG/1.1/DTD/svg11.dtd">
<!-- Creator: CorelDRAW 2019 (64-Bit) -->
<svg xmlns="http://www.w3.org/2000/svg" xml:space="preserve" width="20mm" height="10mm" version="1.1" style="shape-rendering:geometricPrecision; text-rendering:geometricPrecision; image-rendering:optimizeQuality; fill-rule:evenodd; clip-rule:evenodd"
viewBox="0 0 121.16 60.58"
 xmlns:xlink="http://www.w3.org/1999/xlink">
 <defs>
  <style type="text/css">
   <![CDATA[
    .str5 {stroke:#FEFEFE;stroke-width:0.16;stroke-miterlimit:22.9256}
    .str2 {stroke:#33AEAB;stroke-width:0.03;stroke-miterlimit:22.9256}
    .str4 {stroke:#33AEAB;stroke-width:0.03;stroke-miterlimit:22.9256}
    .str8 {stroke:#33AEAB;stroke-width:3.02;stroke-miterlimit:22.9256}
    .str1 {stroke:#33AEAB;stroke-width:3.03;stroke-miterlimit:22.9256}
    .str3 {stroke:#33AEAB;stroke-width:3.03;stroke-miterlimit:22.9256}
    .str0 {stroke:#33AEAB;stroke-width:3.04;stroke-miterlimit:22.9256}
    .str7 {stroke:#FEFEFE;stroke-width:1.21;stroke-miterlimit:22.9256}
    .str10 {stroke:#FEFEFE;stroke-width:0.59;stroke-miterlimit:22.9256}
    .str6 {stroke:#FEFEFE;stroke-width:0.46;stroke-miterlimit:22.9256}
    .str9 {stroke:#33AEAB;stroke-width:0.59;stroke-linecap:round;stroke-linejoin:round;stroke-miterlimit:22.9256}
    .fil2 {fill:none}
    .fil1 {fill:#33AEAB}
    .fil0 {fill:#FEFEFE}
   ]]>
  </style>
 </defs>
 <g id="Capa_x0020_1">
  <metadata id="CorelCorpID_0Corel-Layer"/>
  <g id="_1838290419024">
   <g id="_1840322878768">
    <polygon class="fil0 str0" points="75.48,3.08 80.78,6.12 86.07,9.14 86.07,15.19 86.07,21.25 80.78,24.29 75.48,27.31 70.18,24.29 64.89,21.25 64.89,15.19 64.89,9.14 70.18,6.12 "/>
    <path class="fil1" d="M83.21 5l-8.61 8.94 0 1.14 1.31 0.02 8.23 -8.3c0.72,0.93 0.97,2.71 0.97,4.4l-7.37 7.37 -7 1.69 1.16 -5.87 10.15 -10.61c0.19,0.07 0.02,-0.07 0.31,0.17 0.09,0.07 0.21,0.21 0.28,0.28 0.29,0.35 0.24,0.38 0.6,0.74l-0.02 0.03z"/>
   </g>
  </g>
  <g id="_1838290420112">
   <polygon class="fil0 str1" points="106.04,33 111.34,36.02 116.63,39.05 116.63,45.11 116.63,51.16 111.34,54.19 106.04,57.22 100.74,54.19 95.44,51.16 95.44,45.11 95.44,39.05 100.74,36.02 "/>
   <g id="_1838289137104">
    <polygon class="fil1 str2" points="106.04,53.84 98.14,49.43 98.14,40.6 106.04,45.01 106.03,49.83 105.35,49.45 105.36,45.39 98.92,41.78 98.91,48.99 106.04,53.07 "/>
    <polygon class="fil1 str2" points="106.8,45.33 113.93,49.42 113.25,49.8 106.79,46.17 "/>
    <polygon class="fil1 str2" points="106.79,49.43 106.03,49.83 106.01,37.69 106.01,36.9 112.62,40.59 111.92,40.97 106.78,38.1 106.78,44.62 113.92,40.59 113.91,41.34 106.8,45.33 "/>
    <polygon class="fil0 str2" points="105.35,49.45 106.03,49.83 106.02,36.9 112.61,40.59 106.78,43.85 106.78,44.61 113.28,40.95 113.28,40.95 113.92,40.59 106.01,36.18 105.38,36.54 "/>
    <polygon class="fil0 str2" points="98.14,40.6 98.7,40.28 105.36,44.03 105.36,44.63 "/>
    <polygon class="fil0 str2" points="99.66,42.2 99.68,48.74 106.04,52.31 106.04,53.07 98.91,48.99 98.91,41.78 "/>
    <polygon class="fil0 str2" points="107.25,45.08 113.93,48.83 113.93,49.42 106.8,45.33 "/>
   </g>
  </g>
  <g id="_1838290424368">
   <g id="_1840290701520">
    <polygon class="fil0 str3" points="45.33,3.08 50.62,6.11 55.91,9.13 55.91,15.2 55.91,21.25 50.62,24.28 45.33,27.31 40.03,24.28 34.73,21.25 34.73,15.2 34.73,9.13 40.03,6.11 "/>
    <path class="fil1" d="M42.67 17.54c-2.4,-0.71 -4.26,1.94 -2.55,2.94 0.84,0.5 2.03,0.2 2.68,-0.33 0.86,-0.7 0.71,-1.45 0.71,-2.81 0,-0.58 0,-1.16 0,-1.74 0,-1.88 -0.41,-1.49 2.77,-2.48 0.44,-0.13 0.87,-0.29 1.31,-0.41 0.36,-0.1 1.08,-0.49 1.16,0.05l0 3.49c-1.35,-0.39 -2.58,0.12 -3.09,1.03 -1,1.83 1.75,2.88 3.36,1.43 0.47,-0.43 0.58,-0.83 0.58,-1.68 0,-1.5 0,-2.99 0,-4.48 0,-3.85 0.44,-3.32 -4.76,-1.79 -1.59,0.46 -2.16,0.51 -2.16,2.25 0,1.51 0,3.01 0,4.51l-0 0.01z"/>
   </g>
  </g>
  <g id="_1838290424752">
   <g id="_1838260949008">
    <polygon class="fil0 str0" points="106.21,3.08 111.51,6.12 116.81,9.14 116.81,15.19 116.81,21.25 111.51,24.29 106.21,27.31 100.91,24.29 95.62,21.25 95.62,15.19 95.62,9.14 100.91,6.12 "/>
    <path class="fil1" d="M107.82 18.32l-5.28 0 2.04 -3.55 -2.21 -0.02 -2.85 4.52 10.2 0c1.04,-1.55 2,-3.02 2.95,-4.62l-2.78 0 -1.88 3.38 -0.19 0.31 0 -0.02z"/>
    <polygon class="fil2 str4" points="109.87,12.95 112.51,8.39 111.23,7.69 109.35,10.98 "/>
    <polygon class="fil1" points="109.8,13.45 110.61,13.45 114.25,7.01 113.46,7.01 "/>
    <path class="fil1 str5" d="M107.39 17.85c-0.03,-0.02 -0.66,-0.83 -0.78,-0.97 -1.12,-1.5 -1.4,-1.67 -2.19,-3.43 -0.29,0.41 -0.41,1.05 -0.35,1.64 0.09,0.71 0.41,0.85 0.86,1.19 0.5,0.38 1.88,1.36 2.43,1.57l0.02 0z"/>
    <polygon class="fil1" points="108.23,12.54 111.13,7.5 110.49,7.17 107.95,11.74 "/>
    <polygon class="fil2 str4" points="107.95,17.37 108.47,16.49 107.57,13.21 107.04,14.07 "/>
    <path class="fil1" d="M107.75 17.95l-0.93 -3.33 -1.6 0c0.24,0.55 2.16,3.02 2.54,3.33z"/>
    <polygon class="fil2 str4" points="108.59,16.31 109.14,15.31 108.42,12.55 108.2,12.9 108.02,12.45 107.7,13.07 "/>
    <polygon class="fil2 str4" points="109.25,15.14 110.13,13.61 109.47,13.61 109.71,13.21 109.14,11.1 108.51,12.36 "/>
   </g>
  </g>
  <g id="_1838290430864">
   <g id="_1840284554080">
    <polygon class="fil0 str1" points="15.18,33 20.48,36.02 25.78,39.05 25.78,45.11 25.78,51.16 20.48,54.19 15.18,57.22 9.88,54.19 4.59,51.16 4.59,45.11 4.59,39.05 9.88,36.02 "/>
    <g>
     <path class="fil1 str6" d="M10.11 41.56l10.12 0c0.6,0 1.09,0.52 1.09,1.16l0 6.03c-0,0.64 -0.49,1.16 -1.1,1.16l-10.12 0c-0.6,-0 -1.09,-0.52 -1.09,-1.16l-0 -6.03c0,-0.64 0.49,-1.16 1.1,-1.16z"/>
     <path class="fil1" d="M12.7 40.31l4.95 0c0.3,0 0.54,0.2 0.54,0.46l0 2.35c-0,0.25 -0.24,0.45 -0.54,0.45l-4.95 -0c-0.3,0 -0.54,-0.2 -0.54,-0.45l-0 -2.36c0,-0.25 0.24,-0.45 0.54,-0.45z"/>
     <circle class="fil2 str7" cx="15.18" cy="45.77" r="2.41"/>
    </g>
   </g>
  </g>
  <g id="_1838290432592">
   <g id="_1838293248288">
    <polygon class="fil0 str8" points="75.6,33 80.9,36.05 86.19,39.07 86.19,45.11 86.19,51.18 80.9,54.2 75.6,57.22 70.31,54.2 65.01,51.18 65.01,45.11 65.01,39.07 70.31,36.05 "/>
    <polygon class="fil1 str9" points="70.44,43.87 70.44,49.04 74.36,49.04 74.36,44.75 76.89,44.75 76.89,49.04 80.77,49.04 80.77,43.87 81.62,43.87 75.6,37.85 69.59,43.87 "/>
   </g>
  </g>
  <g id="_1838290434672">
   <g id="_1838328663280">
    <polygon class="fil0 str8" points="15.14,3.08 20.43,6.13 25.72,9.15 25.72,15.19 25.72,21.26 20.43,24.28 15.14,27.31 9.84,24.28 4.55,21.26 4.55,15.19 4.55,9.15 9.84,6.13 "/>
    <g>
     <rect class="fil1" x="8.86" y="12.07" width="12.53" height="6.79"/>
     <g>
      <polygon class="fil0" points="18.78,17.44 15.73,15.09 21.41,12.09 15.14,12.09 8.86,12.09 "/>
      <polygon class="fil1" points="15.14,9.18 18.26,10.62 21.39,12.07 15.14,12.07 8.86,12.07 12.01,10.62 "/>
     </g>
    </g>
   </g>
  </g>
  <g id="_1838290436848">
   <g id="_1838328657712">
    <polygon class="fil0 str8" points="45.52,33 50.82,36.05 56.11,39.07 56.11,45.11 56.11,51.18 50.82,54.2 45.52,57.22 40.23,54.2 34.93,51.18 34.93,45.11 34.93,39.07 40.23,36.05 "/>
    <path class="fil1 str10" d="M42.27 38.99c1.81,-1.01 1.68,-1.06 2.71,0.98 1.03,2.04 0,2.25 -0.75,2.61 -1.11,0.57 -0.03,2.5 0.34,3.23 0.31,0.62 1.29,2.74 2.27,2.25 0.75,-0.36 1.68,-1.03 2.71,1.01 1.03,2.04 1.06,1.78 -0.85,2.63 -1.91,0.85 -4.8,-0.9 -6.69,-4.62 -1.89,-3.72 -1.55,-7.13 0.23,-8.11l0.03 0.03z"/>
   </g>
  </g>
  <rect class="fil2" x="-0" y="-0" width="121.16" height="60.58"/>
 </g>
</svg>
