<?xml version="1.0" encoding="UTF-8"?>
<!DOCTYPE svg PUBLIC "-//W3C//DTD SVG 1.1//EN" "http://www.w3.org/Graphics/SVG/1.1/DTD/svg11.dtd">
<!-- Creator: CorelDRAW 2019 (64-Bit) -->
<svg xmlns="http://www.w3.org/2000/svg" xml:space="preserve" width="3.9989mm" height="4.5758mm" version="1.1" style="shape-rendering:geometricPrecision; text-rendering:geometricPrecision; image-rendering:optimizeQuality; fill-rule:evenodd; clip-rule:evenodd"
viewBox="0 0 23.45 26.84"
 xmlns:xlink="http://www.w3.org/1999/xlink">
 <defs>
  <style type="text/css">
   <![CDATA[
    .str1 {stroke:#33AEAB;stroke-width:0.03;stroke-miterlimit:22.9256}
    .str0 {stroke:#33AEAB;stroke-width:2.93;stroke-miterlimit:22.9256}
    .fil0 {fill:#FEFEFE}
    .fil2 {fill:#FEFEFE}
    .fil1 {fill:#33AEAB}
   ]]>
  </style>
 </defs>
 <g id="Capa_x0020_1">
  <metadata id="CorelCorpID_0Corel-Layer"/>
  <polygon class="fil0 str0" points="11.73,1.69 16.86,4.62 21.99,7.55 21.99,13.42 21.99,19.28 16.86,22.21 11.73,25.15 6.6,22.21 1.47,19.28 1.47,13.42 1.47,7.55 6.6,4.62 "/>
  <g id="_1838289137104">
   <polygon class="fil1 str1" points="11.73,21.87 4.08,17.6 4.08,9.05 11.73,13.32 11.72,17.99 11.06,17.62 11.07,13.69 4.84,10.2 4.83,17.18 11.73,21.13 "/>
   <polygon class="fil1 str1" points="12.47,13.63 19.37,17.59 18.71,17.96 12.46,14.45 "/>
   <polygon class="fil1 str1" points="12.46,17.6 11.72,17.99 11.7,6.24 11.7,5.47 18.1,9.04 17.43,9.41 12.45,6.63 12.45,12.95 19.36,9.04 19.35,9.77 12.47,13.63 "/>
   <polygon class="fil2 str1" points="11.06,17.62 11.72,17.99 11.71,5.47 18.09,9.04 12.45,12.2 12.45,12.94 18.74,9.39 18.74,9.39 19.36,9.04 11.7,4.77 11.09,5.12 "/>
   <polygon class="fil2 str1" points="4.08,9.05 4.62,8.74 11.07,12.37 11.07,12.96 "/>
   <polygon class="fil2 str1" points="5.55,10.6 5.57,16.94 11.73,20.39 11.73,21.13 4.83,17.18 4.83,10.2 "/>
   <polygon class="fil2 str1" points="12.9,13.39 19.37,17.02 19.37,17.59 12.47,13.63 "/>
  </g>
 </g>
</svg>
