<?xml version="1.0" encoding="UTF-8"?>
<!DOCTYPE svg PUBLIC "-//W3C//DTD SVG 1.1//EN" "http://www.w3.org/Graphics/SVG/1.1/DTD/svg11.dtd">
<!-- Creator: CorelDRAW 2019 (64-Bit) -->
<svg xmlns="http://www.w3.org/2000/svg" xml:space="preserve" width="3.9989mm" height="4.5758mm" version="1.1" style="shape-rendering:geometricPrecision; text-rendering:geometricPrecision; image-rendering:optimizeQuality; fill-rule:evenodd; clip-rule:evenodd"
viewBox="0 0 23.45 26.83"
 xmlns:xlink="http://www.w3.org/1999/xlink">
 <defs>
  <style type="text/css">
   <![CDATA[
    .str0 {stroke:#33AEAB;stroke-width:2.93;stroke-miterlimit:22.9256}
    .fil0 {fill:#FEFEFE}
    .fil1 {fill:#33AEAB}
   ]]>
  </style>
 </defs>
 <g id="Capa_x0020_1">
  <metadata id="CorelCorpID_0Corel-Layer"/>
  <g id="_1840290701520">
   <polygon class="fil0 str0" points="11.73,1.69 16.85,4.62 21.98,7.55 21.98,13.42 21.98,19.28 16.85,22.21 11.73,25.14 6.6,22.21 1.47,19.28 1.47,13.42 1.47,7.55 6.6,4.62 "/>
   <path class="fil1" d="M9.16 15.69c-2.32,-0.69 -4.12,1.88 -2.47,2.85 0.81,0.48 1.97,0.19 2.59,-0.32 0.83,-0.68 0.69,-1.4 0.69,-2.72 0,-0.56 0,-1.12 0,-1.68 0,-1.82 -0.4,-1.44 2.68,-2.4 0.43,-0.13 0.84,-0.28 1.27,-0.4 0.35,-0.1 1.05,-0.47 1.12,0.05l-0 3.38c-1.31,-0.38 -2.5,0.12 -2.99,1 -0.97,1.77 1.69,2.79 3.25,1.38 0.46,-0.42 0.56,-0.8 0.56,-1.63 -0,-1.45 -0,-2.89 -0,-4.34 0,-3.73 0.43,-3.21 -4.61,-1.73 -1.54,0.45 -2.09,0.49 -2.09,2.18 0,1.46 0,2.91 0,4.37z"/>
  </g>
 </g>
</svg>
