<?xml version="1.0" encoding="UTF-8"?>
<!DOCTYPE svg PUBLIC "-//W3C//DTD SVG 1.1//EN" "http://www.w3.org/Graphics/SVG/1.1/DTD/svg11.dtd">
<!-- Creator: CorelDRAW 2019 (64-Bit) -->
<svg xmlns="http://www.w3.org/2000/svg" xml:space="preserve" width="3.9989mm" height="4.5758mm" version="1.1" style="shape-rendering:geometricPrecision; text-rendering:geometricPrecision; image-rendering:optimizeQuality; fill-rule:evenodd; clip-rule:evenodd"
viewBox="0 0 14.04 16.06"
 xmlns:xlink="http://www.w3.org/1999/xlink">
 <defs>
  <style type="text/css">
   <![CDATA[
    .str1 {stroke:#33AEAB;stroke-width:0.02;stroke-miterlimit:22.9256}
    .str0 {stroke:#33AEAB;stroke-width:1.76;stroke-miterlimit:22.9256}
    .str2 {stroke:#FEFEFE;stroke-width:0.09;stroke-miterlimit:22.9256}
    .fil2 {fill:none}
    .fil0 {fill:#FEFEFE}
    .fil1 {fill:#33AEAB}
   ]]>
  </style>
 </defs>
 <g id="Capa_x0020_1">
  <metadata id="CorelCorpID_0Corel-Layer"/>
  <g id="_1838260949008">
   <polygon class="fil0 str0" points="7.02,1.01 10.09,2.77 13.16,4.52 13.16,8.03 13.16,11.54 10.09,13.3 7.02,15.05 3.95,13.3 0.88,11.54 0.88,8.03 0.88,4.52 3.95,2.77 "/>
   <path class="fil1" d="M7.95 9.84l-3.06 -0 1.18 -2.06 -1.28 -0.01 -1.65 2.62 5.91 0c0.6,-0.9 1.16,-1.75 1.71,-2.68l-1.61 -0 -1.09 1.96 -0.11 0.18z"/>
   <polygon class="fil2 str1" points="9.14,6.73 10.67,4.09 9.93,3.68 8.84,5.59 "/>
   <polygon class="fil1" points="9.1,7.02 9.57,7.02 11.68,3.29 11.22,3.29 "/>
   <path class="fil1 str2" d="M7.7 9.57c-0.02,-0.01 -0.38,-0.48 -0.45,-0.56 -0.65,-0.87 -0.81,-0.97 -1.27,-1.99 -0.17,0.24 -0.24,0.61 -0.2,0.95 0.05,0.41 0.24,0.49 0.5,0.69 0.29,0.22 1.09,0.79 1.41,0.91z"/>
   <polygon class="fil1" points="8.19,6.49 9.87,3.57 9.5,3.38 8.03,6.03 "/>
   <polygon class="fil2 str1" points="8.03,9.29 8.33,8.78 7.81,6.88 7.5,7.38 "/>
   <path class="fil1" d="M7.91 9.63l-0.54 -1.93 -0.93 -0c0.14,0.32 1.25,1.75 1.47,1.93z"/>
   <polygon class="fil2 str1" points="8.4,8.68 8.72,8.1 8.3,6.5 8.17,6.7 8.07,6.44 7.88,6.8 "/>
   <polygon class="fil2 str1" points="8.78,8 9.29,7.11 8.91,7.11 9.05,6.88 8.72,5.66 8.35,6.39 "/>
  </g>
 </g>
</svg>
