<?xml version="1.0" encoding="UTF-8"?>
<!DOCTYPE svg PUBLIC "-//W3C//DTD SVG 1.1//EN" "http://www.w3.org/Graphics/SVG/1.1/DTD/svg11.dtd">
<!-- Creator: CorelDRAW 2019 (64-Bit) -->
<svg xmlns="http://www.w3.org/2000/svg" xml:space="preserve" width="27.0932mm" height="13.5466mm" version="1.1" style="shape-rendering:geometricPrecision; text-rendering:geometricPrecision; image-rendering:optimizeQuality; fill-rule:evenodd; clip-rule:evenodd"
viewBox="0 0 1083.72 541.86"
 xmlns:xlink="http://www.w3.org/1999/xlink">
 <defs>
  <style type="text/css">
   <![CDATA[
    .str5 {stroke:#FEFEFE;stroke-width:1.02;stroke-miterlimit:22.9256}
    .str2 {stroke:#33AEAB;stroke-width:0.2;stroke-miterlimit:22.9256}
    .str4 {stroke:#33AEAB;stroke-width:0.23;stroke-miterlimit:22.9256}
    .str8 {stroke:#33AEAB;stroke-width:19.95;stroke-miterlimit:22.9256}
    .str1 {stroke:#33AEAB;stroke-width:19.98;stroke-miterlimit:22.9256}
    .str3 {stroke:#33AEAB;stroke-width:19.98;stroke-miterlimit:22.9256}
    .str0 {stroke:#33AEAB;stroke-width:20.05;stroke-miterlimit:22.9256}
    .str7 {stroke:#FEFEFE;stroke-width:7.98;stroke-miterlimit:22.9256}
    .str10 {stroke:#FEFEFE;stroke-width:3.92;stroke-miterlimit:22.9256}
    .str6 {stroke:#FEFEFE;stroke-width:3.07;stroke-miterlimit:22.9256}
    .str9 {stroke:#33AEAB;stroke-width:3.92;stroke-linecap:round;stroke-linejoin:round;stroke-miterlimit:22.9256}
    .fil2 {fill:none}
    .fil1 {fill:#33AEAB}
    .fil0 {fill:#FEFEFE}
   ]]>
  </style>
 </defs>
 <g id="Capa_x0020_1">
  <metadata id="CorelCorpID_0Corel-Layer"/>
  <g id="_1840117848240">
   <g id="_1840322878768">
    <polygon class="fil0 str0" points="677.24,34.27 721.55,59.67 765.86,84.93 765.86,135.6 765.86,186.26 721.55,211.66 677.24,236.92 632.93,211.66 588.61,186.26 588.61,135.6 588.61,84.93 632.93,59.67 "/>
    <path class="fil1" d="M741.9 50.29l-72.03 74.77 0 9.53 10.97 0.14 68.85 -69.43c6.06,7.8 8.08,22.66 8.08,36.81l-61.63 61.63 -58.6 14.14 9.67 -49.08 84.87 -88.77c1.58,0.58 0.14,-0.58 2.6,1.44 0.72,0.58 1.73,1.73 2.31,2.31 2.46,2.89 2.02,3.18 5.05,6.21l-0.14 0.29z"/>
   </g>
   <g>
    <polygon class="fil0 str1" points="948.33,307.72 991.53,332.39 1034.73,357.07 1034.73,406.5 1034.73,455.85 991.53,480.52 948.33,505.28 905.13,480.52 861.93,455.85 861.93,406.5 861.93,357.07 905.13,332.39 "/>
    <g id="_1838289137104">
     <polygon class="fil1 str2" points="948.33,477.66 883.91,441.7 883.91,369.7 948.33,405.66 948.25,444.98 942.69,441.87 942.77,408.77 890.31,379.38 890.23,438.16 948.33,471.42 "/>
     <polygon class="fil1 str2" points="954.56,408.27 1012.67,441.61 1007.11,444.73 954.48,415.17 "/>
     <polygon class="fil1 str2" points="954.48,441.7 948.25,444.98 948.08,346.03 948.08,339.55 1001.97,369.61 996.33,372.73 954.39,349.32 954.39,402.54 1012.58,369.61 1012.5,375.76 954.56,408.27 "/>
     <polygon class="fil0 str2" points="942.69,441.87 948.25,444.98 948.16,339.55 1001.89,369.61 954.39,396.23 954.39,402.46 1007.36,372.56 1007.36,372.56 1012.58,369.61 948.08,333.66 942.94,336.61 "/>
     <polygon class="fil0 str2" points="883.91,369.7 888.46,367.09 942.77,397.66 942.77,402.63 "/>
     <polygon class="fil0 str2" points="896.29,382.75 896.46,436.14 948.33,465.19 948.33,471.42 890.23,438.16 890.23,379.38 "/>
     <polygon class="fil0 str2" points="958.18,406.25 1012.67,436.81 1012.67,441.61 954.56,408.27 "/>
    </g>
   </g>
   <g>
    <g id="_1840290701520">
     <polygon class="fil0 str3" points="406.48,34.27 450.73,59.59 495.06,84.91 495.06,135.64 495.06,186.28 450.73,211.6 406.48,236.92 362.14,211.6 317.81,186.28 317.81,135.64 317.81,84.91 362.14,59.59 "/>
     <path class="fil1" d="M384.27 155.26c-20.05,-5.96 -35.61,16.25 -21.34,24.63 7,4.15 17.02,1.64 22.38,-2.76 7.17,-5.88 5.96,-12.1 5.96,-23.5 0,-4.84 0,-9.68 0,-14.52 0,-15.73 -3.46,-12.45 23.16,-20.74 3.71,-1.12 7.26,-2.42 10.98,-3.46 3.02,-0.86 9.08,-4.06 9.68,0.43l0 29.21c-11.32,-3.28 -21.6,1.04 -25.84,8.64 -8.38,15.29 14.6,24.11 28.08,11.92 3.97,-3.63 4.84,-6.91 4.84,-14.09 0,-12.53 0,-24.98 0,-37.51 0,-32.24 3.72,-27.74 -39.84,-14.95 -13.31,3.88 -18.06,4.24 -18.06,18.84 0,12.62 0,25.15 0,37.76l-0 0.09z"/>
    </g>
   </g>
   <g>
    <g id="_1838260949008">
     <polygon class="fil0 str0" points="948.32,36.84 991.51,61.59 1034.7,86.22 1034.7,135.6 1034.7,184.98 991.51,209.74 948.32,234.36 905.13,209.74 861.93,184.98 861.93,135.6 861.93,86.22 905.13,61.59 "/>
     <path class="fil1" d="M961.4 161.06l-43.05 0 16.6 -28.98 -18.01 -0.14 -23.22 36.86 83.15 0c8.44,-12.66 16.32,-24.62 24.05,-37.7l-22.65 0 -15.34 27.58 -1.54 2.53 0.01 -0.15z"/>
     <polygon class="fil2 str4" points="978.14,117.3 999.67,80.16 989.25,74.4 973.92,101.26 "/>
     <polygon class="fil1" points="977.58,121.38 984.19,121.38 1013.88,68.91 1007.41,68.91 "/>
     <path class="fil1 str5" d="M957.89 157.26c-0.28,-0.14 -5.34,-6.75 -6.33,-7.88 -9.14,-12.24 -11.4,-13.65 -17.87,-28 -2.39,3.38 -3.38,8.58 -2.82,13.36 0.7,5.77 3.38,6.9 7.04,9.71 4.08,3.1 15.34,11.11 19.84,12.8l0.14 0z"/>
     <polygon class="fil1" points="964.77,113.93 988.41,72.85 983.21,70.18 962.53,107.46 "/>
     <polygon class="fil2 str4" points="962.53,153.32 966.75,146.14 959.43,119.42 955.07,126.45 "/>
     <path class="fil1" d="M960.84 158.1l-7.6 -27.15 -13.08 0c1.97,4.5 17.58,24.62 20.68,27.15z"/>
     <polygon class="fil2 str4" points="967.73,144.74 972.23,136.58 966.33,114.07 964.49,116.88 963.09,113.22 960.41,118.29 "/>
     <polygon class="fil2 str4" points="973.08,135.18 980.25,122.65 974.91,122.65 976.88,119.42 972.23,102.25 967.03,112.52 "/>
    </g>
   </g>
   <g>
    <g id="_1840284554080">
     <polygon class="fil0 str1" points="135.44,305.15 179.76,330.47 224.08,355.79 224.08,406.5 224.08,457.13 179.76,482.45 135.44,507.85 91.12,482.45 46.79,457.13 46.79,406.5 46.79,355.79 91.12,330.47 "/>
     <g>
      <path class="fil1 str6" d="M93.02 376.77l84.67 0c5.05,0.01 9.15,4.34 9.15,9.69l0 50.45c-0,5.33 -4.1,9.66 -9.16,9.66l-84.66 0.01c-5.05,-0.01 -9.15,-4.34 -9.15,-9.68l-0 -50.45c0,-5.34 4.1,-9.67 9.16,-9.67z"/>
      <path class="fil1" d="M114.7 366.32l41.39 0c2.48,0.01 4.49,1.71 4.49,3.81l0.01 19.7c-0.01,2.1 -2.02,3.81 -4.5,3.81l-41.38 -0.01c-2.48,0.01 -4.49,-1.7 -4.49,-3.8l-0 -19.7c0,-2.09 2.02,-3.8 4.5,-3.8z"/>
      <path class="fil2 str7" d="M155.57 412.03c0,-11.12 -9.01,-20.12 -20.13,-20.12 -11.11,0 -20.12,9 -20.12,20.12 0,11.12 9.01,20.13 20.12,20.13 11.12,0 20.13,-9.01 20.13,-20.13z"/>
     </g>
    </g>
   </g>
   <g>
    <g id="_1838293248288">
     <polygon class="fil0 str8" points="677.19,305.18 721.48,330.67 765.77,355.95 765.77,406.5 765.77,457.27 721.48,482.55 677.19,507.83 632.9,482.55 588.61,457.27 588.61,406.5 588.61,355.95 632.9,330.67 "/>
     <polygon class="fil1 str9" points="633.99,396.13 633.99,439.34 666.82,439.34 666.82,403.48 687.99,403.48 687.99,439.34 720.4,439.34 720.4,396.13 727.53,396.13 677.19,345.79 626.85,396.13 "/>
    </g>
   </g>
   <g>
    <g id="_1838328663280">
     <polygon class="fil0 str8" points="135.38,34.26 179.67,59.76 223.96,85.04 223.96,135.6 223.96,186.37 179.67,211.65 135.38,236.93 91.08,211.65 46.79,186.37 46.79,135.6 46.79,85.04 91.08,59.76 "/>
     <g>
      <polygon class="fil1" points="82.88,166.27 187.66,166.27 187.66,109.46 82.88,109.46 "/>
      <g>
       <polygon class="fil0" points="165.84,154.4 140.35,134.73 187.88,109.67 135.38,109.67 82.87,109.67 "/>
       <polygon class="fil1" points="135.38,85.25 161.52,97.36 187.66,109.45 135.38,109.45 82.87,109.45 109.24,97.36 "/>
      </g>
     </g>
    </g>
   </g>
   <g>
    <g id="_1838328657712">
     <polygon class="fil0 str8" points="406.39,305.18 450.67,330.67 494.96,355.95 494.96,406.5 494.96,457.27 450.67,482.55 406.39,507.83 362.09,482.55 317.81,457.27 317.81,406.5 317.81,355.95 362.09,330.67 "/>
     <path class="fil1 str10" d="M379.16 355.3c15.12,-8.43 14.04,-8.86 22.68,8.21 8.64,17.07 0,18.8 -6.26,21.82 -9.29,4.75 -0.22,20.95 2.8,27 2.6,5.18 10.81,22.9 19.02,18.8 6.26,-3.02 14.04,-8.64 22.68,8.43 8.64,17.07 8.86,14.91 -7.13,22.04 -15.99,7.13 -40.19,-7.56 -55.96,-38.67 -15.77,-31.11 -12.96,-59.63 1.94,-67.84l0.22 0.22z"/>
    </g>
   </g>
   <polygon class="fil2" points="-0,0 1083.72,0 1083.72,541.86 -0,541.86 "/>
  </g>
 </g>
</svg>
