<?xml version="1.0" encoding="UTF-8"?>
<!DOCTYPE svg PUBLIC "-//W3C//DTD SVG 1.1//EN" "http://www.w3.org/Graphics/SVG/1.1/DTD/svg11.dtd">
<!-- Creator: CorelDRAW 2019 (64-Bit) -->
<svg xmlns="http://www.w3.org/2000/svg" xml:space="preserve" width="9.9788mm" height="8.0267mm" version="1.1" style="shape-rendering:geometricPrecision; text-rendering:geometricPrecision; image-rendering:optimizeQuality; fill-rule:evenodd; clip-rule:evenodd"
viewBox="0 0 997.16 802.09"
 xmlns:xlink="http://www.w3.org/1999/xlink">
 <defs>
  <style type="text/css">
   <![CDATA[
    .str0 {stroke:#33AEAB;stroke-width:49.95;stroke-miterlimit:22.9256}
    .fil0 {fill:none}
   ]]>
  </style>
 </defs>
 <g id="Capa_x0020_1">
  <metadata id="CorelCorpID_0Corel-Layer"/>
  <g id="_1840241564928">
   <path class="fil0 str0" d="M153.78 676.03l-99.42 0.25c-16.18,0 -29.38,-13.2 -29.38,-29.38l0 -491.77c0,-15.73 12.47,-29.35 28.04,-29.35l101.09 -0.01"/>
   <path class="fil0 str0" d="M279.87 24.98l437.41 0c38.73,0 70.44,31.71 70.44,70.44l0 611.25c0,38.73 -31.71,70.44 -70.44,70.44l-437.41 0c-38.73,0 -70.44,-31.71 -70.44,-70.44l0 -611.25c0,-38.73 31.71,-70.44 70.44,-70.44z"/>
   <path class="fil0 str0" d="M843.38 126.07l99.42 -0.25c16.18,0 29.38,13.2 29.38,29.38l0 491.77c0,15.73 -12.47,29.35 -28.04,29.35l-101.09 0.01"/>
  </g>
 </g>
</svg>
