<?xml version="1.0" encoding="UTF-8"?>
<!DOCTYPE svg PUBLIC "-//W3C//DTD SVG 1.1//EN" "http://www.w3.org/Graphics/SVG/1.1/DTD/svg11.dtd">
<!-- Creator: CorelDRAW 2019 (64-Bit) -->
<svg xmlns="http://www.w3.org/2000/svg" xml:space="preserve" width="9.74mm" height="8.9998mm" version="1.1" style="shape-rendering:geometricPrecision; text-rendering:geometricPrecision; image-rendering:optimizeQuality; fill-rule:evenodd; clip-rule:evenodd"
viewBox="0 0 63.21 58.4"
 xmlns:xlink="http://www.w3.org/1999/xlink">
 <defs>
  <style type="text/css">
   <![CDATA[
    .str0 {stroke:#33AEAB;stroke-width:3.24;stroke-miterlimit:22.9256}
    .fil0 {fill:none}
   ]]>
  </style>
 </defs>
 <g id="Capa_x0020_1">
  <metadata id="CorelCorpID_0Corel-Layer"/>
  <g id="_1840318922928">
   <path class="fil0 str0" d="M22.71 5.02l35.54 0c1.84,0 3.34,1.66 3.34,3.69l0 40.79c0,2.03 -1.5,3.69 -3.34,3.69l-8.27 0 0 -20.15c0,-1.58 -1.16,-2.86 -2.59,-2.86l-29.64 0c-1.42,0 -2.59,1.29 -2.59,2.86l0 20.15 -10.2 0c-1.84,0 -3.34,-1.66 -3.34,-3.69l0 -41.12c0,-0.46 0.63,1.27 2.06,1.27l17.02 0c1.1,0 2.01,-0.9 2.01,-2.01l0 -2.63zm19.54 48.18l-20.07 0 0 -12.05c0,-1.22 0.9,-2.21 2,-2.21l16.07 0c1.1,0 2,1 2,2.21l0 12.05z"/>
   <path class="fil0 str0" d="M17.75 30.18l29.64 0c1.42,0 2.59,1.29 2.59,2.86l0 21.3c0,3.29 -7.74,3.2 -7.74,0.01l0 -13.21c0,-1.22 -0.9,-2.21 -2,-2.21l-16.07 0c-1.1,0 -2,1 -2,2.21l0 13.21c0,3.21 -7.01,3.22 -7.01,-0.01l0 -21.3c0,-1.58 1.16,-2.86 2.59,-2.86z"/>
   <rect class="fil0 str0" x="1.67" y="1.62" width="21.04" height="8.03" rx="1.81" ry="2.01"/>
  </g>
 </g>
</svg>
