<?xml version="1.0" encoding="UTF-8"?>
<!DOCTYPE svg PUBLIC "-//W3C//DTD SVG 1.1//EN" "http://www.w3.org/Graphics/SVG/1.1/DTD/svg11.dtd">
<!-- Creator: CorelDRAW 2019 (64-Bit) -->
<svg xmlns="http://www.w3.org/2000/svg" xml:space="preserve" width="9.005mm" height="9.0001mm" version="1.1" style="shape-rendering:geometricPrecision; text-rendering:geometricPrecision; image-rendering:optimizeQuality; fill-rule:evenodd; clip-rule:evenodd"
viewBox="0 0 53.57 53.54"
 xmlns:xlink="http://www.w3.org/1999/xlink">
 <defs>
  <style type="text/css">
   <![CDATA[
    .str0 {stroke:#33AEAB;stroke-width:2.97;stroke-linejoin:round;stroke-miterlimit:22.9256}
    .fil0 {fill:#FEFEFE}
   ]]>
  </style>
 </defs>
 <g id="Capa_x0020_1">
  <metadata id="CorelCorpID_0Corel-Layer"/>
  <g id="_1840286851216">
   <path class="fil0 str0" d="M30.81 1.52c4.02,0.64 7.73,2.21 10.9,4.49 -0.16,0.12 -0.31,0.25 -0.45,0.4 -1.54,1.57 -1.53,4.09 0.04,5.63 1.57,1.55 4.09,1.52 5.63,-0.04 0.14,-0.15 0.27,-0.3 0.39,-0.46 2.44,3.28 4.12,7.17 4.76,11.4 -0.2,-0.03 -0.4,-0.05 -0.61,-0.05 -2.19,-0.01 -3.99,1.77 -3.99,3.96 -0.01,2.2 1.77,3.99 3.96,4 0.21,0 0.41,-0.02 0.61,-0.05 -0.64,4.02 -2.21,7.72 -4.49,10.88 -0.11,-0.15 -0.23,-0.28 -0.36,-0.42 -1.57,-1.55 -4.08,-1.56 -5.65,-0.02 -1.56,1.55 -1.57,4.07 -0.03,5.64 0.16,0.16 0.32,0.3 0.49,0.42 -3.28,2.44 -7.16,4.11 -11.39,4.75 0.03,-0.18 0.05,-0.37 0.05,-0.56 0.01,-2.21 -1.74,-4 -3.94,-4.04 -2.19,-0.03 -4,1.72 -4.05,3.92 -0,0.22 0.02,0.44 0.05,0.66 -4.02,-0.64 -7.73,-2.21 -10.89,-4.49 0.16,-0.12 0.31,-0.25 0.45,-0.39 1.54,-1.57 1.53,-4.09 -0.05,-5.63 -1.57,-1.55 -4.09,-1.52 -5.63,0.04 -0.14,0.15 -0.27,0.3 -0.39,0.46 -2.44,-3.28 -4.12,-7.17 -4.76,-11.4 0.2,0.03 0.39,0.05 0.6,0.05 2.2,0.01 4,-1.76 4,-3.97 0.01,-2.2 -1.77,-3.98 -3.96,-3.99 -0.21,-0 -0.41,0.01 -0.61,0.04 0.64,-4.02 2.21,-7.72 4.49,-10.89 0.11,0.15 0.23,0.29 0.36,0.42 1.56,1.56 4.07,1.56 5.64,0.02 1.56,-1.55 1.57,-4.07 0.02,-5.63 -0.16,-0.16 -0.32,-0.3 -0.5,-0.43 3.28,-2.44 7.18,-4.12 11.4,-4.75 -0.03,0.18 -0.05,0.37 -0.05,0.56 -0.03,2.2 1.73,4 3.92,4.05 2.19,0.03 4.01,-1.73 4.05,-3.92 0,-0.22 -0.02,-0.44 -0.05,-0.65z"/>
   <circle class="fil0 str0" cx="26.78" cy="26.77" r="8.73"/>
  </g>
 </g>
</svg>
