<?xml version="1.0" encoding="UTF-8"?>
<!DOCTYPE svg PUBLIC "-//W3C//DTD SVG 1.1//EN" "http://www.w3.org/Graphics/SVG/1.1/DTD/svg11.dtd">
<!-- Creator: CorelDRAW 2019 (64-Bit) -->
<svg xmlns="http://www.w3.org/2000/svg" xml:space="preserve" width="60.1268mm" height="23.7132mm" version="1.1" style="shape-rendering:geometricPrecision; text-rendering:geometricPrecision; image-rendering:optimizeQuality; fill-rule:evenodd; clip-rule:evenodd"
viewBox="0 0 2126.26 838.57"
 xmlns:xlink="http://www.w3.org/1999/xlink">
 <defs>
  <style type="text/css">
   <![CDATA[
    .fil1 {fill:#373435;fill-rule:nonzero}
    .fil0 {fill:#EC268F;fill-rule:nonzero}
    .fil3 {fill:#33AEAB;fill-rule:nonzero}
    .fil2 {fill:#EC268F;fill-rule:nonzero;fill-opacity:0.901961}
    .fil4 {fill:#33AEAB;fill-rule:nonzero;fill-opacity:0.901961}
   ]]>
  </style>
 </defs>
 <g id="Capa_x0020_1">
  <metadata id="CorelCorpID_0Corel-Layer"/>
  <path class="fil0" d="M692.48 426.8l-34.11 127.3c28.15,-62.16 49.29,-100.31 63.31,-114.62 8.46,-8.46 17.3,-12.68 26.52,-12.68 6.15,0 11.24,2.31 15.18,6.92 3.94,4.61 5.86,11.15 5.86,19.6 0,14.6 -3.55,26.9 -10.67,36.89 -4.51,6.34 -9.51,9.51 -14.89,9.51 -6.25,0 -10.86,-2.79 -13.83,-8.45 -2.98,-5.57 -5.09,-8.84 -6.34,-9.8 -1.15,-0.96 -2.5,-1.44 -3.75,-1.44 -1.54,0 -3.08,0.48 -4.81,1.44 -3.36,1.63 -7.78,6.05 -13.06,13.07 -5.39,7.02 -11.92,18.83 -19.7,35.36 -7.79,16.53 -13.94,30.46 -18.35,41.79 -4.42,11.34 -10.57,33.05 -18.45,65.14l-54.86 0 37.47 -150.27c2.6,-11.15 3.94,-18.54 3.94,-22.29 0,-3.94 -0.77,-7.02 -2.11,-9.32 -1.44,-2.21 -3.36,-3.94 -5.76,-5 -2.5,-1.15 -7.59,-1.73 -15.47,-1.73l1.92 -6.44 68.41 -14.99 13.55 0z"/>
  <path class="fil1" d="M1815.16 435.62l-9.89 70.14 -8.46 0c-1.06,-18.25 -6.63,-32.47 -16.53,-42.95 -9.99,-10.38 -20.56,-15.56 -31.8,-15.56 -7.02,0 -12.68,2.02 -17.2,6.05 -4.51,4.04 -6.72,8.94 -6.72,14.7 0,4.9 0.96,9.51 2.88,13.65 2.02,4.23 6.34,9.9 13.16,17.1 23.83,25.65 38.24,43.33 43.43,53.04 5.19,9.71 7.78,19.99 7.78,31.13 0,12.01 -3.07,23.25 -9.13,33.92 -6.15,10.57 -15.18,19.12 -27.19,25.56 -12.02,6.54 -24.5,9.71 -37.47,9.71 -8.84,0 -19.6,-1.73 -32.38,-5.28 -8.46,-2.5 -14.8,-3.65 -19.12,-3.65 -3.74,0 -6.63,0.48 -8.75,1.63 -2.01,1.16 -4.41,3.56 -7.01,7.31l-8.46 0 11.24 -75.72 7.11 0c5.38,18.45 10.38,31.52 14.99,39.3 4.61,7.78 10.76,13.93 18.45,18.54 7.69,4.61 15.09,6.91 22.29,6.91 8.26,0 15.08,-2.59 20.47,-7.87 5.48,-5.28 8.17,-11.43 8.17,-18.55 0,-7.11 -1.73,-14.02 -5.28,-20.75 -3.55,-6.63 -11.72,-17.01 -24.5,-31.04 -17.87,-19.22 -29.5,-34.01 -34.88,-44.49 -3.94,-7.5 -5.96,-16.04 -5.96,-25.65 0,-16.33 5.96,-29.88 17.78,-40.84 11.81,-10.85 28.44,-16.33 49.77,-16.33 9.42,0 20.95,1.63 34.69,4.8 6.73,1.73 12.1,2.6 16.24,2.6 5.86,0 10.57,-2.5 14.12,-7.39l8.17 0zm-244.21 40.25c0,-12.2 -1.93,-21.04 -5.67,-26.43 -2.79,-3.84 -6.44,-5.67 -10.96,-5.67 -4.71,0 -9.61,2.21 -14.7,6.73 -10.09,9.42 -21.04,28.44 -32.76,57.07 -11.72,28.53 -17.58,53.32 -17.58,74.08 0,8.07 1.35,13.93 3.94,17.39 2.6,3.46 5.57,5.19 8.75,5.19 6.92,0 13.83,-3.84 20.85,-11.53 9.89,-11.24 18.83,-24.98 26.71,-41.12 14.22,-28.34 21.43,-53.61 21.43,-75.71zm72.54 -43.05l-43.91 150.56 -4.7 18.54c-0.39,2.31 -0.58,3.84 -0.58,4.81 0,1.92 0.67,3.45 1.92,4.8 1.34,1.35 2.69,2.02 3.94,2.02 3.17,0 7.59,-2.4 13.26,-7.11 2.21,-2.02 7.68,-8.94 16.33,-20.85l7.88 4.04c-10.66,19.69 -22.2,34.01 -34.3,43.04 -12.2,9.03 -25.37,13.46 -39.49,13.46 -8.55,0 -15.18,-2.21 -19.7,-6.73 -4.51,-4.51 -6.73,-10.09 -6.73,-16.91 0,-5.96 2.41,-16.91 7.3,-32.86l5.38 -18.35c-17.49,30.07 -34.3,51.31 -50.44,63.89 -9.32,7.31 -19.41,10.96 -30.08,10.96 -13.93,0 -23.92,-5.67 -30.17,-17.11 -6.15,-11.43 -9.22,-24.3 -9.22,-38.62 0,-21.33 6.53,-45.83 19.5,-73.4 13.07,-27.58 30.07,-49.77 51.11,-66.49 17.49,-13.83 33.82,-20.85 49,-20.85 8.46,0 15.28,2.5 20.37,7.39 5.19,4.81 9.03,13.74 11.43,26.71l8.17 -27.87 53.71 -3.07zm-231.04 155.19l6.82 6.15c-14.7,17.49 -29.11,30.36 -43.33,38.52 -18.83,10.96 -38.34,16.34 -58.61,16.34 -13.64,0 -25.74,-2.88 -36.12,-8.65 -10.47,-5.86 -18.16,-14.03 -23.25,-24.5 -5.1,-10.57 -7.59,-21.33 -7.59,-32.38 0,-24.79 6.73,-49.09 20.27,-73.02 13.54,-24.03 31.32,-42.95 53.32,-56.88 22.09,-14.02 43.72,-21.04 64.85,-21.04 17.1,0 29.98,3.84 38.63,11.34 8.65,7.49 12.97,16.82 12.97,28.15 0,10.09 -3.27,18.64 -9.8,25.75 -6.44,7.01 -13.74,10.57 -21.81,10.57 -6.92,0 -12.68,-2.31 -17.3,-6.82 -4.61,-4.51 -6.92,-9.8 -6.92,-16.04 0,-8.07 4.13,-15.18 12.39,-21.33 5.48,-4.13 8.17,-7.79 8.17,-11.05 0,-2.6 -1.06,-4.71 -3.36,-6.44 -2.98,-2.4 -6.92,-3.65 -11.82,-3.65 -12.59,0 -24.5,5.19 -35.74,15.47 -14.8,13.55 -26.14,30.65 -33.92,51.5 -7.78,20.85 -11.72,40.65 -11.72,59.38 0,14.89 4.03,26.71 12.01,35.45 7.97,8.84 17.49,13.26 28.53,13.26 9.61,0 19.99,-2.5 31.32,-7.5 11.24,-4.9 21.91,-12.49 32,-22.58zm-164.71 -157.39l-46.41 161.03c-2.4,9.22 -3.65,15.28 -3.65,18.35 0,1.44 0.67,2.98 1.92,4.51 1.35,1.44 2.79,2.21 4.23,2.21 2.69,0 5.18,-1.16 7.68,-3.37 6.92,-5.67 15.09,-15.76 24.4,-30.45l7.88 4.51c-22.87,39.78 -47.18,59.67 -72.83,59.67 -9.8,0 -17.59,-2.69 -23.35,-8.26 -5.86,-5.57 -8.75,-12.49 -8.75,-20.95 0,-5.67 1.25,-12.78 3.94,-21.43l31.52 -108.38c2.98,-10.28 4.51,-18.06 4.51,-23.35 0,-3.36 -1.44,-6.34 -4.42,-9.03 -2.89,-2.59 -6.82,-3.94 -11.63,-3.94 -2.5,0 -5.19,0.1 -8.17,0.29l2.78 -9.03 76.86 -12.39 13.45 0zm-366.44 48.15c0,-12.2 -1.92,-21.04 -5.67,-26.42 -2.79,-3.84 -6.44,-5.67 -10.96,-5.67 -4.71,0 -9.61,2.21 -14.7,6.73 -10.09,9.42 -21.04,28.44 -32.76,57.08 -11.72,28.53 -17.58,53.32 -17.58,74.07 0,8.07 1.35,13.93 3.94,17.39 2.6,3.46 5.57,5.18 8.75,5.18 6.92,0 13.83,-3.84 20.85,-11.53 9.89,-11.24 18.83,-24.98 26.71,-41.12 14.22,-28.34 21.43,-53.61 21.43,-75.71zm72.54 -43.05l-43.91 150.56 -4.71 18.54c-0.38,2.31 -0.58,3.85 -0.58,4.81 0,1.92 0.67,3.46 1.92,4.8 1.34,1.35 2.69,2.02 3.94,2.02 3.17,0 7.59,-2.4 13.26,-7.11 2.21,-2.02 7.69,-8.93 16.33,-20.85l7.88 4.03c-10.66,19.7 -22.2,34.01 -34.3,43.04 -12.2,9.03 -25.37,13.45 -39.49,13.45 -8.55,0 -15.18,-2.21 -19.7,-6.73 -4.51,-4.51 -6.73,-10.09 -6.73,-16.91 0,-5.96 2.4,-16.91 7.31,-32.86l5.38 -18.35c-17.48,30.07 -34.3,51.31 -50.44,63.89 -9.32,7.3 -19.41,10.96 -30.08,10.96 -13.93,0 -23.93,-5.67 -30.17,-17.11 -6.15,-11.43 -9.22,-24.3 -9.22,-38.62 0,-21.33 6.53,-45.83 19.5,-73.41 13.07,-27.58 30.07,-49.77 51.11,-66.49 17.49,-13.83 33.82,-20.85 49,-20.85 8.46,0 15.28,2.5 20.37,7.39 5.18,4.81 9.03,13.74 11.43,26.72l8.17 -27.87 53.71 -3.08zm75.8 125.27l-26.52 104.72c-12.39,49.58 -24.4,85.42 -36.13,107.52 -11.72,22.19 -25.56,38.62 -41.41,49.29 -15.85,10.67 -33.92,16.05 -54.19,16.05 -12.97,0 -22.39,-2.5 -28.44,-7.5 -5.96,-4.9 -8.94,-10.66 -8.94,-17.29 0,-6.15 2.4,-11.54 7.4,-16.05 4.99,-4.52 11.62,-6.73 19.88,-6.73 6.73,0 11.91,1.73 15.47,5.18 3.55,3.46 5.38,7.89 5.38,13.07 0,4.9 -1.15,8.55 -3.45,10.86 -2.21,2.3 -3.36,3.93 -3.36,4.61l1.15 1.44c0.96,0.77 2.02,1.15 3.36,1.15 4.52,0 8.36,-1.44 11.53,-4.23 7.88,-7.11 13.84,-15.76 17.78,-25.94 2.79,-6.92 8.07,-25.17 15.76,-54.86l46.12 -181.3 -31.52 0 7.59 -26.42c11.24,0.19 19.51,-1.25 24.7,-4.23 5.09,-2.98 10.57,-9.8 16.14,-20.27 16.72,-30.74 34.3,-52.85 52.65,-66.1 18.35,-13.36 38.92,-19.99 61.68,-19.99 14.41,0 24.88,2.79 31.52,8.36 6.53,5.67 9.8,12.97 9.8,22 0,7.68 -2.11,13.83 -6.44,18.45 -4.32,4.61 -9.8,6.92 -16.33,6.92 -6.05,0 -10.96,-1.92 -14.89,-5.67 -3.94,-3.75 -5.96,-8.26 -5.96,-13.54 0,-3.75 1.25,-7.69 3.84,-11.92 2.5,-4.22 3.75,-7.11 3.75,-8.55 0,-1.73 -0.58,-3.07 -1.63,-4.13 -1.15,-1.06 -2.69,-1.54 -4.51,-1.54 -9.03,0 -18.25,5.48 -27.58,16.33 -15.37,17.77 -27.77,45.73 -37.18,83.88l32.95 0 -7.88 26.42 -32.09 0zm-353.78 -253.39c-1.59,10.18 -2.39,18.57 -2.39,25.16 0,11.88 3.49,21.36 10.28,28.35 6.79,7.09 15.97,10.58 27.46,10.58 11.18,0 22.26,-2.69 33.24,-8.08 10.98,-5.29 23.86,-14.68 38.44,-27.95l6.99 6.49c-18.07,21.86 -35.64,37.33 -52.71,46.62 -17.07,9.28 -35.94,13.87 -56.6,13.87 -26.36,0 -44.52,-6.29 -54.6,-18.87 -9.98,-12.58 -15.08,-27.15 -15.08,-43.72 0,-25.66 7.59,-51.41 22.56,-77.17 14.97,-25.75 35.44,-46.32 61.29,-61.89 25.85,-15.47 51.71,-23.26 77.66,-23.26 13.18,0 23.26,3.2 29.95,9.39 6.69,6.29 10.08,14.18 10.08,23.66 0,11.58 -3.3,22.76 -9.98,33.64 -8.89,14.68 -20.37,26.55 -34.14,35.54 -13.88,9.08 -29.35,15.97 -46.52,20.66 -11.28,3.1 -26.66,5.49 -45.92,6.99zm2 -12.28c13.88,-1.9 24.56,-4.69 32.24,-8.18 7.59,-3.5 15.07,-9.19 22.36,-16.97 7.29,-7.79 13.58,-17.67 18.87,-29.55 5.19,-11.88 7.88,-22.96 7.88,-33.34 0,-4.29 -1.2,-7.69 -3.69,-10.18 -2.39,-2.6 -5.49,-3.79 -9.18,-3.79 -7.59,0 -16.07,5.19 -25.45,15.77 -17.17,19.07 -31.44,47.82 -43.03,86.25zm337.67 -114.3l-45.62 156.43 -4.89 19.27c-0.4,2.39 -0.6,3.99 -0.6,4.99 0,2 0.7,3.6 2,4.99 1.39,1.4 2.79,2.1 4.09,2.1 3.3,0 7.89,-2.5 13.78,-7.39 2.3,-2.1 7.98,-9.28 16.97,-21.66l8.18 4.19c-11.08,20.46 -23.06,35.34 -35.64,44.72 -12.68,9.39 -26.36,13.98 -41.03,13.98 -8.89,0 -15.78,-2.3 -20.47,-6.99 -4.69,-4.69 -6.99,-10.48 -6.99,-17.57 0,-6.19 2.5,-17.57 7.59,-34.14l5.59 -19.07c-18.17,31.25 -35.64,53.31 -52.41,66.38 -9.68,7.59 -20.16,11.38 -31.24,11.38 -14.47,0 -24.86,-5.89 -31.35,-17.77 -6.39,-11.88 -9.59,-25.26 -9.59,-40.13 0,-22.16 6.79,-47.62 20.27,-76.27 13.58,-28.65 31.25,-51.71 53.11,-69.08 18.17,-14.38 35.14,-21.66 50.91,-21.66 8.78,0 15.87,2.6 21.16,7.69 5.39,4.99 9.38,14.28 11.88,27.75l8.49 -28.95 55.8 -3.2zm-75.37 44.72c0,-12.68 -2,-21.86 -5.89,-27.45 -2.9,-4 -6.69,-5.89 -11.38,-5.89 -4.89,0 -9.98,2.3 -15.27,6.99 -10.49,9.78 -21.86,29.55 -34.04,59.3 -12.18,29.65 -18.27,55.4 -18.27,76.97 0,8.38 1.4,14.47 4.1,18.07 2.69,3.6 5.79,5.39 9.08,5.39 7.19,0 14.38,-3.99 21.66,-11.98 10.28,-11.68 19.57,-25.95 27.75,-42.73 14.77,-29.45 22.26,-55.7 22.26,-78.66zm236.34 113.5l7.09 6.39c-15.27,18.17 -30.25,31.54 -45.02,40.03 -19.57,11.38 -39.83,16.97 -60.9,16.97 -14.17,0 -26.75,-2.99 -37.53,-8.98 -10.88,-6.09 -18.87,-14.58 -24.16,-25.46 -5.29,-10.98 -7.89,-22.16 -7.89,-33.64 0,-25.75 6.99,-51.01 21.07,-75.87 14.07,-24.96 32.54,-44.62 55.4,-59.1 22.96,-14.57 45.42,-21.86 67.38,-21.86 17.77,0 31.14,4 40.13,11.78 8.99,7.79 13.48,17.47 13.48,29.25 0,10.48 -3.39,19.36 -10.18,26.75 -6.69,7.29 -14.27,10.98 -22.66,10.98 -7.19,0 -13.18,-2.39 -17.97,-7.09 -4.79,-4.69 -7.19,-10.18 -7.19,-16.67 0,-8.39 4.29,-15.78 12.88,-22.16 5.69,-4.29 8.49,-8.09 8.49,-11.48 0,-2.69 -1.1,-4.89 -3.5,-6.69 -3.09,-2.5 -7.19,-3.79 -12.28,-3.79 -13.08,0 -25.45,5.39 -37.13,16.07 -15.37,14.08 -27.16,31.84 -35.24,53.51 -8.08,21.66 -12.18,42.23 -12.18,61.69 0,15.47 4.19,27.75 12.48,36.84 8.29,9.18 18.17,13.78 29.65,13.78 9.98,0 20.77,-2.6 32.54,-7.79 11.68,-5.09 22.76,-12.98 33.24,-23.46zm125.93 -161.52l-48.21 167.31c-2.5,9.58 -3.79,15.87 -3.79,19.07 0,1.5 0.7,3.09 2,4.69 1.39,1.5 2.89,2.3 4.39,2.3 2.79,0 5.39,-1.2 7.98,-3.49 7.19,-5.89 15.67,-16.37 25.36,-31.64l8.19 4.69c-23.76,41.33 -49.02,61.99 -75.67,61.99 -10.18,0 -18.27,-2.79 -24.26,-8.58 -6.09,-5.79 -9.08,-12.98 -9.08,-21.76 0,-5.89 1.3,-13.28 4.09,-22.26l32.74 -112.6c3.09,-10.68 4.69,-18.77 4.69,-24.26 0,-3.5 -1.5,-6.59 -4.59,-9.39 -2.99,-2.69 -7.09,-4.09 -12.08,-4.09 -2.6,0 -5.39,0.1 -8.49,0.3l2.9 -9.38 79.86 -12.88 13.98 0zm169.7 0c12.28,0 23.86,2.9 34.84,8.69 10.88,5.69 19.06,13.67 24.66,23.86 5.59,10.08 8.38,21.36 8.38,33.84 0,25.36 -7.09,50.81 -21.26,76.27 -14.08,25.45 -32.85,45.52 -56.1,60.19 -23.36,14.77 -46.72,22.06 -70.08,22.06 -21.46,0 -38.03,-6.39 -49.71,-19.17 -11.68,-12.68 -17.57,-28.25 -17.57,-46.62 0,-21.86 4.39,-42.32 13.18,-61.39 8.78,-19.06 19.87,-35.73 33.24,-49.91 13.28,-14.07 28.75,-25.56 46.12,-34.44 17.47,-8.88 35.54,-13.38 54.3,-13.38zm-9.68 12.28c-8.38,0 -15.27,2.5 -20.76,7.39 -10.88,9.88 -23.26,33.05 -37.13,69.48 -13.88,36.34 -20.77,69.08 -20.77,98.33 0,7.29 2.2,13.18 6.59,17.87 4.39,4.69 9.58,6.99 15.67,6.99 5.99,0 11.38,-1.8 16.07,-5.49 6.99,-5.69 15.57,-18.37 25.55,-38.04 10.09,-19.67 18.27,-41.43 24.76,-65.18 6.39,-23.86 9.68,-45.62 9.68,-65.58 0,-8.19 -2.09,-14.47 -6.09,-18.97 -4,-4.49 -8.49,-6.79 -13.58,-6.79zm190.83 -12.28l-28.95 100.93c19.47,-29.45 34.14,-49.61 43.83,-60.5 14.28,-15.67 26.65,-26.25 37.03,-31.94 10.48,-5.59 20.17,-8.49 29.15,-8.49 8.19,0 15.17,3.1 21.07,9.08 5.79,6.09 8.68,13.98 8.68,23.76 0,8.68 -1.9,19.36 -5.79,31.84l-30.15 100.63c-2.5,8.78 -3.79,14.47 -3.79,17.27 0,1.5 0.6,2.89 1.9,4.19 1.3,1.3 2.5,1.9 3.69,1.9 1.5,0 3.2,-0.7 4.89,-1.99 5.49,-4.49 11.08,-10.98 16.67,-19.37 1.4,-2.09 3.69,-5.39 6.79,-9.88l9.08 5.49c-23.06,38.83 -47.32,58.2 -72.87,58.2 -9.68,0 -17.37,-2.5 -22.76,-7.59 -5.49,-5.09 -8.19,-11.38 -8.19,-18.97 0,-6.49 1.8,-16.17 5.49,-29.25l29.55 -100.63c2,-6.69 2.9,-11.48 2.9,-14.68 0,-1.7 -0.6,-3.19 -1.99,-4.49 -1.4,-1.3 -3,-1.9 -4.99,-1.9 -5.79,0 -13.08,4.1 -21.66,12.28 -21.56,20.66 -42.52,51.51 -62.89,92.44l-19.27 69.88 -59.9 0 43.83 -151.24c4.29,-14.77 6.39,-25.36 6.39,-31.54 0,-2.69 -0.6,-4.99 -1.9,-6.89 -1.2,-1.8 -3.3,-3.3 -6.09,-4.19 -2.79,-1 -8.18,-1.5 -15.97,-1.5l2.69 -9.08 79.26 -13.78 14.28 0zm185.03 129.87c-1.59,10.18 -2.39,18.57 -2.39,25.16 0,11.88 3.49,21.36 10.28,28.35 6.79,7.09 15.97,10.58 27.46,10.58 11.18,0 22.26,-2.69 33.24,-8.08 10.98,-5.29 23.86,-14.68 38.44,-27.95l6.99 6.49c-18.07,21.86 -35.64,37.33 -52.71,46.62 -17.07,9.28 -35.94,13.87 -56.6,13.87 -26.36,0 -44.52,-6.29 -54.6,-18.87 -9.98,-12.58 -15.08,-27.15 -15.08,-43.72 0,-25.66 7.59,-51.41 22.56,-77.17 14.97,-25.75 35.44,-46.32 61.29,-61.89 25.85,-15.47 51.71,-23.26 77.66,-23.26 13.18,0 23.26,3.2 29.95,9.39 6.69,6.29 10.08,14.18 10.08,23.66 0,11.58 -3.3,22.76 -9.98,33.64 -8.89,14.68 -20.37,26.55 -34.14,35.54 -13.88,9.08 -29.35,15.97 -46.52,20.66 -11.28,3.1 -26.66,5.49 -45.92,6.99zm2 -12.28c13.88,-1.9 24.56,-4.69 32.24,-8.18 7.59,-3.5 15.07,-9.19 22.36,-16.97 7.29,-7.79 13.58,-17.67 18.87,-29.55 5.19,-11.88 7.88,-22.96 7.88,-33.34 0,-4.29 -1.2,-7.69 -3.69,-10.18 -2.39,-2.6 -5.49,-3.79 -9.18,-3.79 -7.59,0 -16.07,5.19 -25.45,15.77 -17.17,19.07 -31.44,47.82 -43.03,86.25zm285.96 -117.6l-10.28 72.88 -8.78 0c-1.1,-18.97 -6.89,-33.74 -17.17,-44.62 -10.38,-10.79 -21.37,-16.18 -33.05,-16.18 -7.28,0 -13.17,2.1 -17.87,6.29 -4.69,4.19 -6.99,9.28 -6.99,15.27 0,5.09 1,9.88 3,14.17 2.1,4.39 6.59,10.28 13.68,17.77 24.76,26.65 39.73,45.02 45.12,55.1 5.39,10.09 8.09,20.77 8.09,32.35 0,12.48 -3.2,24.16 -9.48,35.24 -6.39,10.98 -15.77,19.87 -28.25,26.55 -12.48,6.79 -25.45,10.08 -38.93,10.08 -9.18,0 -20.37,-1.8 -33.64,-5.49 -8.78,-2.6 -15.38,-3.79 -19.87,-3.79 -3.89,0 -6.89,0.5 -9.08,1.7 -2.1,1.2 -4.59,3.7 -7.29,7.59l-8.79 0 11.68 -78.66 7.39 0c5.59,19.17 10.78,32.74 15.57,40.83 4.79,8.08 11.18,14.47 19.17,19.27 7.98,4.79 15.67,7.19 23.16,7.19 8.59,0 15.67,-2.69 21.26,-8.19 5.69,-5.49 8.49,-11.88 8.49,-19.27 0,-7.39 -1.8,-14.57 -5.49,-21.56 -3.7,-6.89 -12.18,-17.67 -25.46,-32.24 -18.57,-19.97 -30.65,-35.34 -36.24,-46.22 -4.09,-7.79 -6.19,-16.67 -6.19,-26.65 0,-16.97 6.19,-31.05 18.47,-42.43 12.28,-11.28 29.55,-16.97 51.71,-16.97 9.78,0 21.76,1.7 36.03,4.99 6.99,1.8 12.58,2.69 16.87,2.69 6.09,0 10.98,-2.6 14.68,-7.69l8.49 0z"/>
  <path class="fil2" d="M587.04 411.82l-26.75 123.85 -10.96 0c-1.45,-36.02 -9.52,-61.93 -24.22,-77.83 -14.69,-15.9 -35.3,-23.85 -61.92,-23.85 -27.11,0 -54.21,9.63 -81.56,28.91 -27.23,19.28 -50.6,49.04 -69.87,89.03 -19.28,40 -28.91,82.05 -28.91,126.26 0,37.95 8.55,66.86 25.54,86.86 17.11,20 37.23,30 60.24,30 9.64,0 21.33,-2.77 34.94,-8.43l29.64 -101.68c4.94,-16.98 7.47,-28.07 7.47,-33.49 0,-7.11 -3.01,-13.01 -9.04,-17.83 -6.02,-4.81 -16.27,-7.22 -30.84,-7.22l2.77 -10.6 166.26 0 -2.53 10.6c-9.88,0.72 -17.59,2.53 -23.13,5.66 -5.42,3.01 -9.87,7.59 -13.13,13.73 -1.93,3.49 -4.82,12.77 -8.92,27.83l-34.94 118.67c-39.76,15.06 -81.56,22.53 -125.66,22.53 -33.85,0 -62.65,-6.15 -86.38,-18.55 -23.85,-12.29 -43.49,-31.81 -59.15,-58.55 -15.66,-26.75 -23.5,-57.11 -23.5,-91.2 0,-72.77 32.41,-132.64 97.1,-179.63 50.6,-36.74 107.95,-55.06 172.15,-55.06 11.09,0 21.33,0.48 30.72,1.69 7.11,0.97 19.39,3.61 37.11,8.19 11.32,2.77 19.03,4.22 23.25,4.22 8.31,0 16.15,-4.7 23.62,-14.1l10.6 0z"/>
  <path class="fil3" d="M568.71 177.73l-35.44 132.27c29.25,-64.59 51.21,-104.22 65.78,-119.09 8.79,-8.79 17.97,-13.18 27.55,-13.18 6.39,0 11.68,2.4 15.78,7.19 4.09,4.79 6.09,11.58 6.09,20.37 0,15.17 -3.69,27.95 -11.08,38.33 -4.69,6.59 -9.88,9.88 -15.47,9.88 -6.49,0 -11.28,-2.89 -14.38,-8.78 -3.09,-5.79 -5.29,-9.18 -6.59,-10.18 -1.2,-1 -2.6,-1.5 -3.89,-1.5 -1.59,0 -3.19,0.5 -4.99,1.5 -3.49,1.69 -8.09,6.29 -13.58,13.58 -5.59,7.29 -12.38,19.57 -20.46,36.74 -8.09,17.17 -14.48,31.65 -19.07,43.43 -4.59,11.78 -10.98,34.34 -19.17,67.68l-57 0 38.93 -156.13c2.7,-11.58 4.1,-19.27 4.1,-23.16 0,-4.09 -0.8,-7.28 -2.2,-9.68 -1.5,-2.3 -3.49,-4.09 -5.99,-5.19 -2.6,-1.2 -7.89,-1.8 -16.07,-1.8l2 -6.69 71.08 -15.57 14.07 0z"/>
  <path class="fil4" d="M463.18 178.13l-34.25 148.73 -13.76 0c-1.32,-40.26 -11.27,-70.41 -29.57,-90.47 -18.3,-20.06 -42.16,-30.01 -71.59,-30.01 -31.76,0 -63.39,13.61 -95.01,40.7 -31.62,27.23 -58.41,68.8 -80.37,124.87 -17.71,45.38 -26.64,90.18 -26.64,134.24 0,39.67 9.81,69.98 29.43,90.62 19.62,20.79 46.26,31.18 79.93,31.18 27.52,0 52.41,-6 74.81,-17.86 22.54,-11.85 45.24,-31.32 68.51,-58.56l16.69 0c-28.54,42.9 -57.53,73.05 -86.66,90.33 -29.13,17.27 -64.7,25.91 -106.71,25.91 -56.36,0 -101.74,-16.98 -136.29,-51.24 -34.4,-34.11 -51.68,-78.76 -51.68,-133.95 0,-51.53 13.76,-100.57 40.99,-147.41 27.37,-46.7 66.75,-84.61 118.14,-113.6 51.53,-28.98 102.76,-43.48 153.56,-43.48 19.47,0 43.48,4.1 72.02,12.3 14.93,4.39 25.18,6.44 30.89,6.44 11.42,0 23.13,-6.29 34.84,-18.74l12.73 0z"/>
  <path class="fil3" d="M466.33 37.48c-6.09,-5.19 -12.56,-9.09 -19.33,-11.69 -6.8,-2.6 -13.95,-3.9 -21.43,-3.9 -14.47,0 -26.26,4.64 -35.35,13.95 -9.1,9.31 -13.64,21.34 -13.64,36.16 0,14.29 4.42,26.1 13.27,35.41 8.84,9.31 20.01,13.95 33.46,13.95 7.85,0 15.31,-1.39 22.42,-4.18 7.08,-2.78 13.89,-6.96 20.42,-12.59l0 24.37c-5.79,4.18 -12.09,7.3 -18.93,9.34 -6.84,2.07 -14.23,3.09 -22.18,3.09 -10.14,0 -19.51,-1.67 -28.11,-4.98 -8.63,-3.34 -16.18,-8.23 -22.7,-14.69 -6.46,-6.34 -11.41,-13.83 -14.91,-22.42 -3.47,-8.6 -5.2,-17.78 -5.2,-27.49 0,-9.74 1.73,-18.87 5.2,-27.4 3.49,-8.57 8.5,-16.05 15.09,-22.52 6.59,-6.52 14.13,-11.48 22.64,-14.81 8.51,-3.37 17.72,-5.04 27.62,-5.04 7.79,0 15.22,1.15 22.27,3.4 7.08,2.29 13.92,5.72 20.57,10.33l-1.17 21.71z"/>
  <path id="1" class="fil1" d="M504 61.79l3.93 0c11.41,0 18.99,-1.33 22.73,-3.99 3.74,-2.66 5.63,-7.36 5.63,-14.13 0,-7.3 -2.01,-12.43 -6.03,-15.43 -4.02,-3 -11.47,-4.48 -22.33,-4.48l-3.93 0 0 38.04zm-1.3 16.7l0 59.38 -20.23 0 0 -132.68 30.06 0c8.81,0 15.65,0.59 20.54,1.73 4.86,1.15 9,3.03 12.43,5.69 4.11,3.22 7.27,7.36 9.53,12.43 2.22,5.07 3.34,10.61 3.34,16.67 0,10.61 -2.57,18.93 -7.7,24.96 -5.13,6 -12.71,9.62 -22.73,10.82l45.65 60.37 -24.31 0 -44.16 -59.38 -2.41 0z"/>
  <polygon id="2" class="fil1" points="576.15,137.88 576.15,5.19 597.68,5.19 597.68,137.88 "/>
  <path id="3" class="fil1" d="M610.47 111.31l17.2 -7.95c1.64,5.91 4.64,10.42 9,13.52 4.33,3.12 9.9,4.67 16.67,4.67 6.43,0 11.51,-1.79 15.31,-5.35 3.77,-3.56 5.66,-8.32 5.66,-14.29 0,-7.79 -6.46,-14.75 -19.42,-20.85 -1.82,-0.9 -3.21,-1.58 -4.17,-1.98 -14.63,-7.14 -24.37,-13.58 -29.23,-19.36 -4.86,-5.78 -7.3,-12.83 -7.3,-21.15 0,-10.82 3.68,-19.58 11.01,-26.29 7.33,-6.71 16.98,-10.05 28.89,-10.05 9.77,0 17.97,1.88 24.56,5.66 6.59,3.77 11.14,9.19 13.67,16.24l-16.83 8.72c-2.66,-4.18 -5.57,-7.24 -8.75,-9.16 -3.19,-1.95 -6.84,-2.91 -10.95,-2.91 -5.78,0 -10.42,1.52 -13.82,4.55 -3.43,3 -5.13,7.05 -5.13,12.12 0,7.98 7.51,15.43 22.52,22.3 1.14,0.56 2.04,0.99 2.72,1.27 13.11,6.06 22.11,11.97 27,17.72 4.88,5.78 7.33,12.99 7.33,21.62 0,12.56 -3.96,22.55 -11.87,29.94 -7.92,7.39 -18.62,11.1 -32.1,11.1 -11.29,0 -20.54,-2.6 -27.77,-7.79 -7.21,-5.19 -11.94,-12.62 -14.17,-22.3z"/>
  <polygon id="4" class="fil1" points="752.18,23.57 752.18,137.88 730.66,137.88 730.66,23.57 695.4,23.57 695.4,5.19 787.25,5.19 787.25,23.57 "/>
  <polygon id="5" class="fil1" points="793.5,137.88 793.5,5.19 815.02,5.19 815.02,137.88 "/>
  <path id="6" class="fil1" d="M863.45 85.73l36.99 0 -13.61 -30.25c-0.77,-1.92 -1.61,-4.14 -2.44,-6.65 -0.84,-2.51 -1.7,-5.29 -2.54,-8.38 -0.71,2.91 -1.48,5.6 -2.32,8.1 -0.81,2.5 -1.64,4.82 -2.48,6.93l-13.61 30.25zm59.63 52.14l-15.03 -34.14 -52.58 0 -15.4 34.14 -22.64 0 64.24 -137.88 64.18 137.88 -22.76 0z"/>
  <path id="7" class="fil1" d="M947.7 137.88l0 -137.88 84.31 81.06c2.29,2.29 4.61,4.73 6.99,7.33 2.35,2.6 4.82,5.53 7.42,8.78l0 -91.98 19.85 0 0 137.88 -85.95 -82.58c-2.29,-2.26 -4.52,-4.61 -6.65,-7.08 -2.16,-2.48 -4.17,-5.07 -6.12,-7.79l0 92.26 -19.86 0z"/>
  <path id="8" class="fil1" d="M1213.36 85.73l36.99 0 -13.61 -30.25c-0.77,-1.92 -1.61,-4.14 -2.44,-6.65 -0.84,-2.51 -1.7,-5.29 -2.54,-8.38 -0.71,2.91 -1.48,5.6 -2.32,8.1 -0.81,2.5 -1.64,4.82 -2.48,6.93l-13.61 30.25zm59.63 52.14l-15.03 -34.14 -52.58 0 -15.4 34.14 -22.64 0 64.24 -137.88 64.18 137.88 -22.76 0z"/>
  <path id="9" class="fil1" d="M1400.81 37.48c-6.09,-5.19 -12.56,-9.09 -19.33,-11.69 -6.8,-2.6 -13.95,-3.9 -21.43,-3.9 -14.47,0 -26.26,4.64 -35.35,13.95 -9.1,9.31 -13.64,21.34 -13.64,36.16 0,14.29 4.42,26.1 13.27,35.41 8.84,9.31 20.01,13.95 33.46,13.95 7.85,0 15.31,-1.39 22.42,-4.18 7.08,-2.78 13.89,-6.96 20.42,-12.59l0 24.37c-5.79,4.18 -12.09,7.3 -18.93,9.34 -6.84,2.07 -14.23,3.09 -22.18,3.09 -10.14,0 -19.51,-1.67 -28.11,-4.98 -8.63,-3.34 -16.18,-8.23 -22.7,-14.69 -6.46,-6.34 -11.41,-13.83 -14.91,-22.42 -3.47,-8.6 -5.2,-17.78 -5.2,-27.49 0,-9.74 1.73,-18.87 5.2,-27.4 3.49,-8.57 8.5,-16.05 15.09,-22.52 6.59,-6.52 14.13,-11.48 22.64,-14.81 8.51,-3.37 17.72,-5.04 27.62,-5.04 7.79,0 15.22,1.15 22.27,3.4 7.08,2.29 13.92,5.72 20.57,10.33l-1.17 21.71z"/>
  <polygon id="10" class="fil1" points="1416.95,137.88 1416.95,5.19 1490.99,5.19 1490.99,23.57 1438.47,23.57 1438.47,56.78 1490.99,56.78 1490.99,75.71 1438.47,75.71 1438.47,118.58 1490.99,118.58 1490.99,137.88 "/>
  <path id="11" class="fil1" d="M1526.61 118.39l18.16 0c9.96,0 17.44,-0.65 22.42,-1.98 5.01,-1.33 9.34,-3.59 13.02,-6.71 5.01,-4.3 8.78,-9.62 11.29,-16.02 2.5,-6.37 3.77,-13.79 3.77,-22.24 0,-8.47 -1.27,-15.87 -3.77,-22.24 -2.51,-6.4 -6.28,-11.72 -11.29,-16.02 -3.74,-3.12 -8.23,-5.38 -13.46,-6.71 -5.23,-1.33 -13.42,-1.98 -24.56,-1.98l-7.79 0 -7.79 0 0 93.9zm-21.53 19.48l0 -132.68 29.04 0c18.93,0 32.23,0.96 39.96,2.85 7.7,1.92 14.44,5.1 20.26,9.56 7.67,5.88 13.49,13.39 17.44,22.58 3.96,9.18 5.94,19.67 5.94,31.45 0,11.79 -1.98,22.21 -5.94,31.3 -3.96,9.09 -9.77,16.61 -17.44,22.55 -5.81,4.45 -12.4,7.64 -19.82,9.56 -7.39,1.89 -18.93,2.85 -34.57,2.85l-5.82 0 -29.04 0z"/>
  <path id="12" class="fil1" d="M1745.39 71.82c0,-6.71 -1.24,-13.08 -3.68,-19.11 -2.44,-6.03 -5.97,-11.41 -10.55,-16.11 -4.49,-4.67 -9.65,-8.23 -15.53,-10.73 -5.91,-2.51 -12.12,-3.77 -18.62,-3.77 -6.52,0 -12.74,1.23 -18.65,3.71 -5.87,2.48 -11.13,6.06 -15.71,10.79 -4.58,4.64 -8.11,9.99 -10.52,16.02 -2.41,6.03 -3.62,12.43 -3.62,19.21 0,6.71 1.21,13.05 3.62,19.02 2.41,5.97 5.94,11.32 10.52,16.02 4.58,4.73 9.8,8.32 15.68,10.79 5.85,2.48 12.09,3.71 18.68,3.71 6.46,0 12.59,-1.24 18.43,-3.71 5.81,-2.47 11.07,-6.06 15.71,-10.79 4.58,-4.7 8.1,-10.05 10.55,-16.05 2.44,-6.03 3.68,-12.34 3.68,-18.99zm22.45 0c0,9.43 -1.76,18.34 -5.29,26.72 -3.56,8.41 -8.69,15.9 -15.46,22.49 -6.8,6.58 -14.51,11.63 -23.1,15.12 -8.57,3.5 -17.57,5.26 -26.97,5.26 -9.56,0 -18.65,-1.76 -27.34,-5.29 -8.66,-3.55 -16.3,-8.56 -22.95,-15.09 -6.77,-6.59 -11.91,-14.04 -15.4,-22.39 -3.49,-8.32 -5.26,-17.26 -5.26,-26.82 0,-9.49 1.76,-18.43 5.26,-26.82 3.49,-8.41 8.63,-15.93 15.4,-22.58 6.78,-6.59 14.45,-11.6 23.01,-15.03 8.57,-3.43 17.66,-5.16 27.28,-5.16 9.53,0 18.56,1.73 27.12,5.16 8.54,3.43 16.21,8.44 22.95,15.03 6.77,6.71 11.91,14.29 15.46,22.7 3.53,8.44 5.29,17.32 5.29,26.69z"/>
  <path id="13" class="fil0" d="M1113.56 61.79l3.93 0c11.41,0 18.99,-1.33 22.73,-3.99 3.74,-2.66 5.63,-7.36 5.63,-14.13 0,-7.3 -2.01,-12.43 -6.03,-15.43 -4.02,-3 -11.47,-4.48 -22.33,-4.48l-3.93 0 0 38.04zm-1.3 16.7l0 59.38 -20.23 0 0 -132.68 30.06 0c8.81,0 15.65,0.59 20.54,1.73 4.86,1.15 9,3.03 12.43,5.69 4.11,3.22 7.27,7.36 9.53,12.43 2.22,5.07 3.34,10.61 3.34,16.67 0,10.61 -2.57,18.93 -7.7,24.96 -5.13,6 -12.71,9.62 -22.73,10.82l45.65 60.37 -24.31 0 -44.16 -59.38 -2.41 0z"/>
 </g>
</svg>
