<?xml version="1.0" encoding="UTF-8"?>
<!DOCTYPE svg PUBLIC "-//W3C//DTD SVG 1.1//EN" "http://www.w3.org/Graphics/SVG/1.1/DTD/svg11.dtd">
<!-- Creator: CorelDRAW 2019 (64-Bit) -->
<svg xmlns="http://www.w3.org/2000/svg" xml:space="preserve" width="67.7333mm" height="25.4mm" version="1.1" style="shape-rendering:geometricPrecision; text-rendering:geometricPrecision; image-rendering:optimizeQuality; fill-rule:evenodd; clip-rule:evenodd"
viewBox="0 0 6773.32 2540"
 xmlns:xlink="http://www.w3.org/1999/xlink">
 <defs>
  <style type="text/css">
   <![CDATA[
    .str3 {stroke:#33AEAB;stroke-width:49.93;stroke-miterlimit:22.9256}
    .str9 {stroke:#33AEAB;stroke-width:49.99;stroke-miterlimit:22.9256}
    .str1 {stroke:#33AEAB;stroke-width:50;stroke-miterlimit:22.9256}
    .str4 {stroke:#33AEAB;stroke-width:50.02;stroke-miterlimit:22.9256}
    .str0 {stroke:#33AEAB;stroke-width:50.05;stroke-miterlimit:22.9256}
    .str6 {stroke:#33AEAB;stroke-width:7.62;stroke-miterlimit:22.9256}
    .str8 {stroke:#33AEAB;stroke-width:49.93;stroke-linejoin:round;stroke-miterlimit:22.9256}
    .str7 {stroke:#33AEAB;stroke-width:49.94;stroke-linecap:round;stroke-linejoin:round;stroke-miterlimit:22.9256}
    .str2 {stroke:#33AEAB;stroke-width:50;stroke-linecap:round;stroke-linejoin:round;stroke-miterlimit:22.9256}
    .str5 {stroke:#33AEAB;stroke-width:50.02;stroke-linecap:round;stroke-linejoin:round;stroke-miterlimit:22.9256}
    .fil0 {fill:none}
    .fil2 {fill:none;fill-rule:nonzero}
    .fil3 {fill:#FEFEFE}
    .fil1 {fill:#33AEAB;fill-rule:nonzero}
   ]]>
  </style>
 </defs>
 <g id="Capa_x0020_1">
  <metadata id="CorelCorpID_0Corel-Layer"/>
  <g id="_1840124663184">
   <g id="_1838262039984">
    <g>
     <path class="fil0 str0" d="M219.55 301.01l84.05 0c4.54,0.02 8.2,3.68 8.2,8.2l-0.02 84.04c0.02,4.53 -3.64,8.19 -8.16,8.19l-84.07 -0.01c-4.5,0.01 -8.16,-3.65 -8.16,-8.17l-0.03 -84.06c0.03,-4.51 3.69,-8.17 8.21,-8.17z"/>
     <line class="fil0 str0" x1="390.64" y1="351.22" x2="1139.7" y2= "351.22" />
    </g>
    <g>
     <path class="fil0 str0" d="M219.55 491.62l84.05 0c4.54,0.02 8.2,3.68 8.2,8.2l-0.02 84.04c0.02,4.53 -3.64,8.19 -8.16,8.19l-84.07 -0.01c-4.5,0.01 -8.16,-3.65 -8.16,-8.17l-0.03 -84.06c0.03,-4.51 3.69,-8.17 8.21,-8.17z"/>
     <line class="fil0 str0" x1="390.64" y1="541.83" x2="954.6" y2= "541.83" />
    </g>
    <g>
     <path class="fil0 str0" d="M219.55 682.23l84.05 0c4.54,0 8.2,3.66 8.2,8.18l-0.02 84.06c0.02,4.51 -3.64,8.17 -8.16,8.17l-84.07 0.01c-4.5,-0.01 -8.16,-3.67 -8.16,-8.19l-0.03 -84.04c0.03,-4.53 3.69,-8.19 8.21,-8.19z"/>
     <line class="fil0 str0" x1="390.64" y1="732.44" x2="718.66" y2= "732.44" />
    </g>
    <g>
     <path class="fil0 str0" d="M219.55 872.84l84.05 0c4.54,0 8.2,3.66 8.2,8.18l-0.02 84.06c0.02,4.51 -3.64,8.17 -8.16,8.17l-84.07 0.02c-4.5,-0.02 -8.16,-3.68 -8.16,-8.2l-0.03 -84.04c0.03,-4.53 3.69,-8.19 8.21,-8.19z"/>
     <line class="fil0 str0" x1="390.64" y1="923.06" x2="954.6" y2= "923.06" />
    </g>
   </g>
  </g>
  <g id="_1840124667728">
   <g id="_1838295617392">
    <path class="fil0 str1" d="M4377.25 1494.07l483.24 0c29.01,0 52.73,23.72 52.73,52.73l0 225.42c-88.56,0 -160.57,71.84 -160.57,160.56 0,88.73 71.84,160.57 160.57,160.57 -79.69,0 -152.38,41.81 -197.59,98.29l-155.11 0 0 -429.15c0,-35.66 -16.89,-79.18 -37.54,-96.75l-160.74 -136.85c-20.65,-17.58 -37.54,-2.9 -37.54,32.76l0 -14.68c0,-29.01 23.72,-52.73 52.73,-52.73l-0.18 -0.17z"/>
    <path class="fil0 str1" d="M4362.22 1528.63l160.66 136.77c20.77,17.68 37.61,65.08 37.61,105.83l0 482.04c0,40.74 -16.84,59.46 -37.61,41.79l-160.66 -136.76c-20.76,-17.68 -37.6,-65.08 -37.6,-105.84l-0.01 -482.03c0.01,-40.75 16.85,-59.47 37.62,-41.79z"/>
    <g>
     <circle class="fil0 str2" cx="4913.4" cy="1932.6" r="160.57"/>
     <path class="fil0 str2" d="M4667.68 2313.81c0.68,-105.63 113.64,-220.64 245.71,-220.64 132.08,0 245.72,110.06 245.72,218.76"/>
    </g>
   </g>
  </g>
  <g id="_1840124669872">
   <g id="_1840246084864">
    <path class="fil0 str3" d="M446.93 1698.54l125.12 111.1m197.09 175.04l140.53 124.81"/>
    <path class="fil0 str3" d="M446.93 2109.5l136.99 -121.73m196.62 -174.59l129.13 -114.64"/>
    <g>
     <ellipse class="fil0 str3" cx="348.32" cy="1610.86" rx="132.05" ry="131.9"/>
     <ellipse class="fil0 str3" cx="348.32" cy="2197.02" rx="132.05" ry="131.9"/>
     <ellipse class="fil0 str3" cx="1008.28" cy="1610.86" rx="132.05" ry="131.9"/>
     <ellipse class="fil0 str3" cx="1008.28" cy="2197.02" rx="132.05" ry="131.9"/>
    </g>
    <ellipse class="fil0 str3" cx="674.99" cy="1892.23" rx="132.05" ry="131.9"/>
   </g>
  </g>
  <g id="_1840124671920">
   <line class="fil0 str4" x1="6155.69" y1="1619.33" x2="6664.81" y2= "1619.33" />
   <line class="fil0 str4" x1="6154.68" y1="1970.19" x2="6665.78" y2= "1970.19" />
   <line class="fil0 str4" x1="6150" y1="2145.64" x2="6670.46" y2= "2145.64" />
   <ellipse class="fil0 str5" cx="5810.8" cy="1777.22" rx="173.84" ry="178.18"/>
   <path class="fil0 str5" d="M5527.46 2208.84c0.83,-120.95 130.16,-252.56 281.58,-252.56 151.42,0 281.62,125.89 281.62,250.4"/>
   <path class="fil1" d="M5810.77 1679.59c3.93,0 7.3,1.45 10.07,4.33 2.8,2.88 4.19,6.4 4.19,10.43 0,4 -1.38,7.48 -4.19,10.36 -2.77,2.91 -6.14,4.33 -10.07,4.33 -3.9,0 -7.23,-1.42 -10,-4.33 -2.81,-2.88 -4.2,-6.36 -4.2,-10.36 0,-4.03 1.38,-7.55 4.2,-10.43 2.8,-2.91 6.1,-4.33 10,-4.33zm-8.61 56.84l17.3 0 0 138.45 -17.3 0 0 -138.45z"/>
   <path id="_1" class="fil2 str6" d="M5810.77 1679.59c3.93,0 7.3,1.45 10.07,4.33 2.8,2.88 4.19,6.4 4.19,10.43 0,4 -1.38,7.48 -4.19,10.36 -2.77,2.91 -6.14,4.33 -10.07,4.33 -3.9,0 -7.23,-1.42 -10,-4.33 -2.81,-2.88 -4.2,-6.36 -4.2,-10.36 0,-4.03 1.38,-7.55 4.2,-10.43 2.8,-2.91 6.1,-4.33 10,-4.33zm-8.61 56.84l17.3 0 0 138.45 -17.3 0 0 -138.45z"/>
   <line class="fil2 str4" x1="6154.68" y1="1794.78" x2="6665.78" y2= "1794.78" />
  </g>
  <g id="_1840124676240">
   <g id="_1838354886976">
    <circle class="fil0 str7" cx="4607" cy="615.49" r="168.67"/>
    <path class="fil0 str7" d="M4557.6 241.14l581.48 0 0 369.69 -96.28 0 -117.48 137.42 0 -137.42 -149.64 0c-2.34,-91.07 -76.88,-164.19 -168.68,-164.19 -17.24,0 -33.77,2.51 -49.4,7.37l0 -212.87z"/>
    <path class="fil0 str7" d="M4343.66 1033.14c0.72,-113.35 121.79,-236.58 263.34,-236.58 141.73,0 263.52,118.02 263.52,234.6"/>
   </g>
  </g>
  <g id="_1840124675632">
   <g id="_1840284534816">
    <path class="fil0 str1" d="M1619.99 258.9l513.75 0c6.35,0 11.5,8.15 11.5,18.21l0 327.41c0,10.06 -5.15,18.21 -11.5,18.21l-513.75 0c-6.34,0 -11.49,-8.15 -11.49,-18.21l-0.02 -327.41c0.02,-10.06 5.17,-18.21 11.52,-18.21z"/>
    <path class="fil0 str1" d="M1931.42 682.58l512.61 0c4.88,-0.01 8.83,5.78 8.83,12.91l0 306.97c0,7.12 -3.95,12.91 -8.83,12.91l-512.61 0.02c-4.87,-0.02 -8.82,-5.81 -8.82,-12.94l-0.01 -306.95c0.01,-7.14 3.96,-12.93 8.84,-12.93z"/>
    <path class="fil0 str1" d="M1615.46 680.62l225.83 0c4.71,-0.02 8.52,12.21 8.52,27.3l-0.01 280.15c0.01,15.08 -3.8,27.31 -8.5,27.31l-225.84 0.01c-4.69,-0.01 -8.5,-12.24 -8.5,-27.33l0 -280.13c0,-15.1 3.81,-27.33 8.51,-27.33z"/>
    <path class="fil0 str1" d="M2221.9 258.9l227.25 0c4.31,-0.01 7.8,12.22 7.8,27.31l0 309.2c0,15.09 -3.49,27.32 -7.8,27.32l-227.25 0c-4.31,0 -7.8,-12.23 -7.8,-27.32l0.01 -309.2c-0.01,-15.09 3.48,-27.32 7.79,-27.32z"/>
   </g>
  </g>
  <g id="_1840124676816">
   <g id="_1840318922928">
    <path class="fil0 str3" d="M1811.53 1531.39l547.62 0c28.35,0 51.47,25.58 51.47,56.86l0 628.52c0,31.28 -23.11,56.86 -51.47,56.86l-127.43 0 0 -310.49c0,-24.35 -17.87,-44.07 -39.91,-44.07l-456.71 0c-21.88,0 -39.91,19.88 -39.91,44.07l0 310.49 -157.17 0c-28.35,0 -51.47,-25.58 -51.47,-56.86l0 -633.61c0,-7.09 9.71,19.57 31.74,19.57l262.26 0c16.95,0 30.97,-13.87 30.97,-30.97l0 -40.53 0.01 0.16zm301.08 742.39l-309.25 0 0 -185.68c0,-18.8 13.87,-34.05 30.82,-34.05l247.61 0c16.95,0 30.82,15.41 30.82,34.05l0 185.68z"/>
    <path class="fil0 str3" d="M1735.1 1919.07l456.71 0c21.88,0 39.91,19.88 39.91,44.07l0 328.21c0,50.7 -119.27,49.31 -119.27,0.15l0 -203.55c0,-18.8 -13.87,-34.05 -30.82,-34.05l-247.61 0c-16.95,0 -30.82,15.41 -30.82,34.05l0 203.55c0,49.46 -108.02,49.62 -108.02,-0.15l0 -328.21c0,-24.35 17.87,-44.07 39.91,-44.07l0.01 0z"/>
    <path class="fil0 str3" d="M1515.21 1479l268.43 0c15.41,0 27.9,13.87 27.9,30.97l-0.01 61.79c0.01,17.1 -12.48,30.97 -27.88,30.97l-268.44 0c-15.39,0 -27.88,-13.87 -27.88,-30.97l-0.01 -61.79c0.01,-17.1 12.5,-30.97 27.9,-30.97z"/>
   </g>
  </g>
  <g id="_1840124679824">
   <g id="_1840286851216">
    <path class="fil3 str8" d="M3455.02 212.69c67.58,10.76 129.94,37.15 183.23,75.48 -2.69,2.02 -5.21,4.2 -7.56,6.72 -25.89,26.39 -25.72,68.75 0.67,94.64 26.39,26.06 68.75,25.55 94.64,-0.67 2.35,-2.52 4.54,-5.04 6.56,-7.73 41.02,55.14 69.26,120.53 80.01,191.63 -3.36,-0.5 -6.72,-0.84 -10.25,-0.84 -36.81,-0.17 -67.07,29.75 -67.07,66.56 -0.17,36.98 29.75,67.07 66.57,67.24 3.53,0 6.89,-0.34 10.25,-0.84 -10.76,67.58 -37.15,129.77 -75.48,182.89 -1.85,-2.52 -3.87,-4.71 -6.05,-7.06 -26.39,-26.06 -68.58,-26.22 -94.98,-0.34 -26.22,26.06 -26.39,68.42 -0.5,94.81 2.69,2.69 5.38,5.04 8.24,7.06 -55.14,41.02 -120.36,69.09 -191.46,79.85 0.5,-3.03 0.84,-6.22 0.84,-9.41 0.17,-37.15 -29.25,-67.24 -66.22,-67.91 -36.81,-0.5 -67.24,28.91 -68.08,65.89 0,3.7 0.34,7.4 0.84,11.09 -67.58,-10.76 -129.94,-37.15 -183.06,-75.48 2.69,-2.02 5.21,-4.2 7.56,-6.56 25.89,-26.39 25.72,-68.75 -0.84,-94.64 -26.39,-26.06 -68.75,-25.55 -94.64,0.67 -2.35,2.52 -4.54,5.04 -6.56,7.73 -41.02,-55.14 -69.26,-120.53 -80.01,-191.63 3.36,0.5 6.56,0.84 10.09,0.84 36.98,0.17 67.24,-29.59 67.24,-66.72 0.17,-36.98 -29.75,-66.9 -66.57,-67.07 -3.53,0 -6.89,0.17 -10.25,0.67 10.76,-67.58 37.15,-129.77 75.48,-183.06 1.85,2.52 3.87,4.87 6.05,7.06 26.22,26.22 68.42,26.22 94.81,0.34 26.22,-26.06 26.39,-68.42 0.34,-94.64 -2.69,-2.69 -5.38,-5.04 -8.4,-7.23 55.14,-41.02 120.69,-69.26 191.63,-79.85 -0.5,3.03 -0.84,6.22 -0.84,9.41 -0.5,36.98 29.08,67.24 65.89,68.08 36.8,0.5 67.4,-29.08 68.07,-65.89 0,-3.7 -0.34,-7.4 -0.84,-10.93l0.65 -0.16z"/>
    <circle class="fil3 str8" cx="3387.29" cy="637.13" r="146.75"/>
   </g>
  </g>
  <g id="_1840124679376">
   <path class="fil0 str9" d="M3041.26 2179.12l-99.49 0.25c-16.19,0 -29.4,-13.21 -29.4,-29.4l0 -492.12c0,-15.74 12.48,-29.37 28.06,-29.37l101.16 -0.01"/>
   <path class="fil0 str9" d="M3167.44 1527.6l437.73 0c38.76,0 70.49,31.73 70.49,70.49l0 611.69c0,38.76 -31.73,70.49 -70.49,70.49l-437.73 0c-38.76,0 -70.49,-31.73 -70.49,-70.49l0 -611.69c0,-38.76 31.73,-70.49 70.49,-70.49z"/>
   <path class="fil0 str9" d="M3731.35 1628.76l99.49 -0.25c16.19,0 29.4,13.21 29.4,29.4l0 492.12c0,15.74 -12.48,29.37 -28.06,29.37l-101.16 0.01"/>
  </g>
  <rect class="fil0" x="-0" y="-0.01" width="6773.32" height="2540"/>
 </g>
</svg>
