<?xml version="1.0" encoding="UTF-8"?>
<!DOCTYPE svg PUBLIC "-//W3C//DTD SVG 1.1//EN" "http://www.w3.org/Graphics/SVG/1.1/DTD/svg11.dtd">
<!-- Creator: CorelDRAW 2019 (64-Bit) -->
<svg xmlns="http://www.w3.org/2000/svg" xml:space="preserve" width="8.845mm" height="8.6974mm" version="1.1" style="shape-rendering:geometricPrecision; text-rendering:geometricPrecision; image-rendering:optimizeQuality; fill-rule:evenodd; clip-rule:evenodd"
viewBox="0 0 428.47 421.32"
 xmlns:xlink="http://www.w3.org/1999/xlink">
 <defs>
  <style type="text/css">
   <![CDATA[
    .str0 {stroke:#33AEAB;stroke-width:24.22;stroke-miterlimit:22.9256}
    .str1 {stroke:#33AEAB;stroke-width:24.22;stroke-linecap:round;stroke-linejoin:round;stroke-miterlimit:22.9256}
    .fil0 {fill:none}
   ]]>
  </style>
 </defs>
 <g id="Capa_x0020_1">
  <metadata id="CorelCorpID_0Corel-Layer"/>
  <g id="_1838290423664">
   <g id="_1838295617392">
    <path class="fil0 str0" d="M37.61 12.11l234.09 0c14.05,0 25.54,11.49 25.54,25.54l0 109.2c-42.9,0 -77.78,34.8 -77.78,77.78 0,42.98 34.8,77.78 77.78,77.78 -38.6,0 -73.82,20.25 -95.72,47.61l-75.14 0 0 -207.89c0,-17.27 -8.18,-38.36 -18.19,-46.87l-77.87 -66.29c-10,-8.52 -18.19,-1.4 -18.19,15.87l0 -7.11c0,-14.05 11.49,-25.54 25.54,-25.54l-0.09 -0.08z"/>
    <path class="fil0 str0" d="M30.33 28.85l77.83 66.25c10.06,8.56 18.22,31.53 18.22,51.27l0 233.51c0,19.74 -8.16,28.8 -18.22,20.24l-77.83 -66.25c-10.06,-8.56 -18.21,-31.53 -18.21,-51.27l-0 -233.5c0,-19.74 8.16,-28.81 18.22,-20.24z"/>
    <g>
     <circle class="fil0 str1" cx="297.33" cy="224.54" r="77.78"/>
     <path class="fil0 str1" d="M178.3 409.21c0.33,-51.17 55.05,-106.88 119.03,-106.88 63.98,0 119.03,53.32 119.03,105.97"/>
    </g>
   </g>
  </g>
 </g>
</svg>
